<svg width="800" height="500" xmlns="http://www.w3.org/2000/svg" xml:space="preserve" version="1.1">
 <g id="Layer_1">
  <title>Layer 1</title>
  <g id="svg_202">
   <path id="svg_1" fill="#AEC9D3" d="m165.36232,392.98971c-1.12881,3.46347 -4.89153,5.88791 -9.03051,4.84886l0,0c-3.76271,-1.03904 -6.39661,-4.50252 -5.2678,-8.31234l17.30847,-60.61079c1.12881,-3.46347 4.89153,-5.88791 9.03051,-4.84886l0,0c3.76271,1.03904 6.39661,4.50252 5.2678,8.31234l-17.30847,60.61079z"/>
   <path id="svg_2" fill="#8DAAB2" d="m165.36232,392.98971c-1.12881,3.46347 -4.89153,5.88791 -9.03051,4.84886l0,0c-3.76271,-1.03904 -6.39661,-4.50252 -5.2678,-8.31234l17.30847,-60.61079c1.12881,-3.46347 4.89153,-5.88791 9.03051,-4.84886l0,0"/>
   <path id="svg_3" fill="#EA2D83" d="m199.22672,396.45318c0,5.88791 -5.2678,12.12216 -11.66441,12.12216l-35.36949,0c-6.39661,0 -7.90169,-6.23425 -7.90169,-12.12216l0,0c0,-5.88791 5.2678,-12.12216 11.66441,-12.12216l35.36949,0c6.39661,0 7.90169,6.23425 7.90169,12.12216l0,0z"/>
   <path id="svg_4" fill="#A0007A" d="m199.22672,396.79953l0,0c0,5.88791 -5.2678,11.77581 -11.66441,11.77581l-35.36949,0c-6.39661,0 -7.90169,-5.54156 -7.90169,-11.77581l0,0c0,-5.88791 4.51525,-12.46851 11.66441,-12.46851"/>
   <path id="svg_5" fill="#FFFB76" d="m195.08774,396.79953c0,1.38539 -2.25763,2.77078 -3.76271,2.77078l0,0c-1.50508,0 -3.76271,-1.38539 -3.76271,-2.77078l0,-4.15617c0,-1.38539 2.25763,-2.77078 3.76271,-2.77078l0,0c1.50508,0 3.76271,1.38539 3.76271,2.77078l0,4.15617z"/>
   <g id="svg_6">
    <circle id="svg_140" fill="#00233F" r="23.35655" cy="329.95448" cx="166.11486"/>
    <path id="svg_141" fill="#00233F" d="m155.203,479.23021c0,1.03904 -1.12881,2.07808 -2.25763,2.07808l0,0c-1.12881,0 -2.25763,-1.03904 -2.25763,-2.07808l0,0c0,-1.03904 1.12881,-2.07808 2.25763,-2.07808l0,0c1.50508,0 2.25763,0.69269 2.25763,2.07808l0,0z"/>
   </g>
   <circle id="svg_9" fill="#095589" r="12.67926" cy="477.84482" cx="174.01656"/>
   <path id="svg_10" fill="#00233F" d="m174.01656,464.68362c7.90169,0 14.2983,5.88791 14.2983,13.1612s-6.39661,13.1612 -14.2983,13.1612"/>
   <circle id="svg_11" fill="#38ADD6" r="5.33864" cy="477.84482" cx="174.01656"/>
   <path id="svg_12" fill="#0C86BC" d="m178.53181,473.68865c2.25763,2.07808 2.25763,5.54156 0,7.96599c-2.25763,2.07808 -6.02034,2.07808 -8.65424,0"/>
   <circle id="svg_13" fill="#095589" r="12.67926" cy="477.84482" cx="216.5352"/>
   <path id="svg_14" fill="#00233F" d="m216.5352,464.68362c7.90169,0 14.2983,5.88791 14.2983,13.1612s-6.39661,13.1612 -14.2983,13.1612"/>
   <circle id="svg_15" fill="#38ADD6" r="5.33864" cy="477.84482" cx="216.5352"/>
   <path id="svg_16" fill="#0C86BC" d="m220.67418,473.68865c2.25763,2.07808 2.25763,5.54156 0,7.96599c-2.25763,2.07808 -6.02034,2.07808 -8.65424,0"/>
   <path id="svg_17" fill="#00233F" d="m142.40978,418.27307c0,12.12216 -10.53559,21.47354 -23.32881,21.47354l-1.88136,0c-13.16949,0 -23.32881,-9.69773 -23.32881,-21.47354l0,-36.71282c0,-12.12216 10.53559,-21.47354 23.32881,-21.47354l1.88136,0c13.16949,0 23.32881,9.69773 23.32881,21.47354l0,36.71282z"/>
   <path id="svg_18" fill="#095589" d="m116.07079,360.08671l0,0c13.16949,0 22.57627,9.69773 22.57627,21.47354l0,36.36648c0,12.12216 -10.15932,21.47354 -22.95254,21.47354l0,0"/>
   <g id="svg_19">
    <path id="svg_153" fill="#EA2D83" d="m228.95215,460.52745l0,-4.84886c0,-21.81989 -18.43729,-40.1763 -42.14237,-40.1763l-124.92203,0c-23.70508,0 -28.59661,18.35641 -28.59661,40.1763l0,4.84886l195.66101,0z"/>
    <path id="svg_154" fill="#EA2D83" d="m178.15554,341.0376c0,31.17127 -28.22034,38.79091 -63.21356,38.79091c-65.09491,0 -63.21356,-7.96599 -63.21356,-38.79091c0,-58.87906 -51.92542,-63.03523 63.21356,-63.03523c65.09491,-0.34635 63.21356,31.86396 63.21356,63.03523z"/>
   </g>
   <g id="svg_22">
    <path id="svg_156" fill="#A0007A" d="m51.72842,341.0376c0,25.97605 -1.12881,35.67378 36.4983,38.09821c19.5661,-2.42443 19.5661,-10.73677 19.5661,-35.32743c0,-29.78588 0,-61.64984 -34.99322,-61.64984c-11.28814,0 -20.69491,0 -28.97288,0c-11.66441,7.2733 7.90169,22.85893 7.90169,58.87906z"/>
    <path id="svg_157" fill="#A0007A" d="m111.17927,415.50229l-49.29152,0c-23.70508,0 -28.59661,18.35641 -28.59661,40.1763l0,4.84886l120.40678,0l0,-4.84886c0,-21.81989 -18.81356,-40.1763 -42.51864,-40.1763z"/>
   </g>
   <path id="svg_25" fill="#AEC9D3" d="m244.00299,464.33727c0,3.46347 -3.01017,6.5806 -7.14915,6.5806l-203.93898,0c-3.76271,0 -7.14915,-2.77078 -7.14915,-6.5806l0,-0.69269c0,-3.46347 3.01017,-6.5806 7.14915,-6.5806l203.93898,0c3.76271,0 7.14915,2.77078 7.14915,6.5806l0,0.69269l0,0z"/>
   <path id="svg_26" fill="#8DAAB2" d="m244.00299,471.26422c0,3.46347 -3.01017,6.5806 -7.14915,6.5806l-203.93898,0c-3.76271,0 -7.14915,-2.77078 -7.14915,-6.5806l0,-0.69269c0,-3.46347 3.01017,-6.5806 7.14915,-6.5806l203.93898,0c3.76271,0 7.14915,2.77078 7.14915,6.5806l0,0.69269l0,0z"/>
   <circle id="svg_27" fill="#095589" r="12.67926" cy="477.84482" cx="47.21317"/>
   <path id="svg_28" fill="#00233F" d="m47.21317,464.68362c7.90169,0 14.2983,5.88791 14.2983,13.1612s-6.39661,13.1612 -14.2983,13.1612"/>
   <circle id="svg_29" fill="#38ADD6" r="5.33864" cy="477.84482" cx="47.21317"/>
   <path id="svg_30" fill="#0C86BC" d="m51.35215,473.68865c2.25763,2.07808 2.25763,5.54156 0,7.96599c-2.25763,2.07808 -6.02034,2.07808 -8.65424,0"/>
   <circle id="svg_31" fill="#095589" r="12.67926" cy="477.84482" cx="89.35554"/>
   <path id="svg_32" fill="#00233F" d="m89.35554,464.68362c7.90169,0 14.2983,5.88791 14.2983,13.1612s-6.39661,13.1612 -14.2983,13.1612"/>
   <circle id="svg_33" fill="#38ADD6" r="5.33864" cy="477.84482" cx="89.35554"/>
   <path id="svg_34" fill="#0C86BC" d="m93.87079,473.68865c2.25763,2.07808 2.25763,5.54156 0,7.96599c-2.25763,2.07808 -6.02034,2.07808 -8.65424,0"/>
   <circle id="svg_35" fill="#095589" r="12.67926" cy="477.84482" cx="131.87418"/>
   <path id="svg_36" fill="#00233F" d="m131.87418,464.68362c7.90169,0 14.2983,5.88791 14.2983,13.1612s-6.39661,13.1612 -14.2983,13.1612"/>
   <circle id="svg_37" fill="#38ADD6" r="5.33864" cy="477.84482" cx="131.87418"/>
   <g id="svg_38">
    <path id="svg_172" fill="#0C86BC" d="m136.01317,473.68865c2.25763,2.07808 2.25763,5.54156 0,7.96599c-2.25763,2.07808 -6.02034,2.07808 -8.65424,0"/>
    <path id="svg_173" fill="#0C86BC" d="m70.16571,479.23021c0,1.03904 -1.12881,2.07808 -2.25763,2.07808l0,0c-1.12881,0 -2.25763,-1.03904 -2.25763,-2.07808l0,0c0,-1.03904 1.12881,-2.07808 2.25763,-2.07808l0,0c1.12881,0 2.25763,0.69269 2.25763,2.07808l0,0z"/>
    <path id="svg_174" fill="#0C86BC" d="m112.68435,479.23021c0,1.03904 -1.12881,2.07808 -2.25763,2.07808l0,0c-1.12881,0 -2.25763,-1.03904 -2.25763,-2.07808l0,0c0,-1.03904 1.12881,-2.07808 2.25763,-2.07808l0,0c1.12881,0 2.25763,0.69269 2.25763,2.07808l0,0z"/>
   </g>
   <circle id="svg_42" fill="#095589" r="23.35655" cy="329.95448" cx="67.53181"/>
   <path id="svg_43" fill="#00233F" d="m93.87079,329.95448c0,13.50755 -11.66441,24.24432 -26.33898,24.24432s-26.33898,-10.73677 -26.33898,-24.24432"/>
   <ellipse id="svg_44" fill="#EA2D83" ry="14.54659" rx="10.53559" cy="329.95448" cx="55.49113"/>
   <path id="svg_45" fill="#A0007A" d="m55.49113,344.50107c-5.64407,0 -10.53559,-6.5806 -10.53559,-14.54659s4.51525,-14.54659 10.53559,-14.54659"/>
   <path id="svg_46" fill="#AEC9D3" d="m43.07418,392.98971c-1.12881,3.46347 -4.89153,5.88791 -9.03051,4.84886l0,0c-3.76271,-1.03904 -6.39661,-4.50252 -5.2678,-8.31234l17.30847,-60.61079c1.12881,-3.46347 4.89153,-5.88791 9.03051,-4.84886l0,0c3.76271,1.03904 6.39661,4.50252 5.2678,8.31234l-17.30847,60.61079z"/>
   <path id="svg_47" fill="#8DAAB2" d="m43.07418,392.98971c-1.12881,3.46347 -4.89153,5.88791 -9.03051,4.84886l0,0c-3.76271,-1.03904 -6.39661,-4.50252 -5.2678,-8.31234l17.30847,-60.61079c1.12881,-3.46347 4.89153,-5.88791 9.03051,-4.84886l0,0"/>
   <path id="svg_48" fill="#EA2D83" d="m76.93859,396.45318c0,5.88791 -5.2678,12.12216 -11.66441,12.12216l-35.36949,0c-6.39661,0 -7.90169,-6.23425 -7.90169,-12.12216l0,0c0,-5.88791 5.2678,-12.12216 11.66441,-12.12216l35.36949,0c6.39661,0 7.90169,6.23425 7.90169,12.12216l0,0z"/>
   <path id="svg_49" fill="#A0007A" d="m76.93859,396.79953l0,0c0,5.88791 -5.2678,11.77581 -11.66441,11.77581l-35.36949,0c-6.39661,0 -7.90169,-5.54156 -7.90169,-11.77581l0,0c0,-5.88791 4.51525,-12.46851 11.66441,-12.46851"/>
   <path id="svg_50" fill="#FFFB76" d="m70.91825,396.79953c0,1.38539 -0.37627,2.77078 -1.88136,2.77078l0,0c-1.50508,0 -1.88136,-1.38539 -1.88136,-2.77078l0,-4.15617c0,-1.38539 0.37627,-2.77078 1.88136,-2.77078l0,0c1.50508,0 1.88136,1.38539 1.88136,2.77078l0,4.15617z"/>
   <g id="svg_51">
    <path id="svg_185" fill="#8DAAB2" d="m87.85046,324.75927c0,0.69269 -0.37627,1.03904 -1.12881,1.03904l-7.52542,0c-0.75254,0 -1.12881,-0.34635 -1.12881,-1.03904l0,0c0,-0.69269 0.37627,-1.03904 1.12881,-1.03904l7.52542,0c0.37627,0 1.12881,0.34635 1.12881,1.03904l0,0z"/>
    <path id="svg_186" fill="#8DAAB2" d="m84.46401,318.17867c0,0.69269 -0.37627,1.03904 -1.12881,1.03904l-7.52542,0c-0.75254,0 -1.12881,-0.34635 -1.12881,-1.03904l0,0c0,-0.69269 0.37627,-1.03904 1.12881,-1.03904l7.52542,0c0.75254,0 1.12881,0.34635 1.12881,1.03904l0,0z"/>
   </g>
   <g id="svg_54">
    <path id="svg_188" fill="#AEC9D3" d="m70.91825,431.43427c0,0.69269 -0.75254,1.38539 -1.50508,1.38539l-15.80339,0c-0.75254,0 -1.50508,-0.69269 -1.50508,-1.38539l0,-0.69269c0,-0.69269 0.75254,-1.38539 1.50508,-1.38539l15.80339,0c0.75254,0 1.50508,0.69269 1.50508,1.38539l0,0.69269z"/>
    <path id="svg_189" fill="#AEC9D3" d="m70.91825,438.36122c0,0.69269 -0.75254,1.38539 -1.50508,1.38539l-15.80339,0c-0.75254,0 -1.50508,-0.69269 -1.50508,-1.38539l0,-0.69269c0,-0.69269 0.75254,-1.38539 1.50508,-1.38539l15.80339,0c0.75254,0 1.50508,0.69269 1.50508,1.38539l0,0.69269z"/>
    <path id="svg_190" fill="#AEC9D3" d="m70.91825,445.28817c0,0.69269 -0.75254,1.38539 -1.50508,1.38539l-15.80339,0c-0.75254,0 -1.50508,-0.69269 -1.50508,-1.38539l0,-0.69269c0,-0.69269 0.75254,-1.38539 1.50508,-1.38539l15.80339,0c0.75254,0 1.50508,0.69269 1.50508,1.38539l0,0.69269z"/>
   </g>
   <g id="svg_58">
    <path id="svg_192" fill="#8DAAB2" d="m97.25723,390.56528c-0.75254,0 -1.50508,-0.69269 -1.50508,-1.38539l0,0c0,-0.69269 0.75254,-1.38539 1.50508,-1.38539l39.88474,0c0.75254,0 1.50508,0.69269 1.50508,1.38539l0,0c0,0.69269 -0.75254,1.38539 -1.50508,1.38539"/>
    <path id="svg_193" fill="#8DAAB2" d="m138.64706,400.26301c0,0.69269 -0.75254,1.38539 -1.50508,1.38539l-38.37966,0c-0.75254,0 -1.50508,-0.69269 -1.50508,-1.38539l0,-0.69269c0,-0.69269 0.75254,-1.38539 1.50508,-1.38539l38.37966,0c0.75254,0 1.50508,0.69269 1.50508,1.38539l0,0.69269z"/>
    <path id="svg_194" fill="#8DAAB2" d="m138.64706,410.65343c0,0.69269 -0.75254,1.38539 -1.50508,1.38539l-38.37966,0c-0.75254,0 -1.50508,-0.69269 -1.50508,-1.38539l0,-0.69269c0,-0.69269 0.75254,-1.38539 1.50508,-1.38539l38.37966,0c0.75254,0 1.50508,0.69269 1.50508,1.38539l0,0.69269z"/>
   </g>
   <ellipse id="svg_62" fill="#FFFB76" ry="6.5806" rx="28.97288" cy="308.1346" cx="144.6674"/>
   <g id="svg_63">
    <path id="svg_197" fill="#FFD67B" d="m173.64028,308.1346c0,3.80982 -12.79322,6.5806 -28.97288,6.5806s-28.97288,-3.11713 -28.97288,-6.5806"/>
    <ellipse id="svg_198" fill="#FFD67B" ry="2.77078" rx="1.88136" cy="328.91544" cx="151.44028"/>
    <ellipse id="svg_199" fill="#FFD67B" ry="2.77078" rx="1.88136" cy="340.34491" cx="151.44028"/>
    <ellipse id="svg_200" fill="#FFD67B" ry="2.77078" rx="1.88136" cy="351.77437" cx="151.44028"/>
   </g>
  </g>
  <path id="svg_203" fill="#AEC9D3" d="m692.95385,275.98971c0.96102,3.46347 4.16441,5.88791 7.68814,4.84886l0,0c3.20339,-1.03904 5.44576,-4.50252 4.48475,-8.31234l-14.73559,-60.61079c-0.96102,-3.46347 -4.16441,-5.88791 -7.68814,-4.84886l0,0c-3.20339,1.03904 -5.44576,4.50252 -4.48475,8.31234l14.73559,60.61079z"/>
  <path id="svg_204" fill="#8DAAB2" d="m692.95385,275.98971c0.96102,3.46347 4.16441,5.88791 7.68814,4.84886l0,0c3.20339,-1.03904 5.44576,-4.50252 4.48475,-8.31234l-14.73559,-60.61079c-0.96102,-3.46347 -4.16441,-5.88791 -7.68814,-4.84886l0,0"/>
  <path id="svg_205" fill="#EA2D83" d="m664.12334,279.45318c0,5.88791 4.48475,12.12216 9.93051,12.12216l30.11186,0c5.44576,0 6.72712,-6.23425 6.72712,-12.12216l0,0c0,-5.88791 -4.48475,-12.12216 -9.93051,-12.12216l-30.11186,0c-5.44576,0 -6.72712,6.23425 -6.72712,12.12216l0,0z"/>
  <path id="svg_206" fill="#A0007A" d="m664.12334,279.79953l0,0c0,5.88791 4.48475,11.77581 9.93051,11.77581l30.11186,0c5.44576,0 6.72712,-5.54156 6.72712,-11.77581l0,0c0,-5.88791 -3.84407,-12.46851 -9.93051,-12.46851"/>
  <path id="svg_207" fill="#FFFB76" d="m667.64707,279.79953c0,1.38539 1.92203,2.77078 3.20339,2.77078l0,0c1.28136,0 3.20339,-1.38539 3.20339,-2.77078l0,-4.15617c0,-1.38539 -1.92203,-2.77078 -3.20339,-2.77078l0,0c-1.28136,0 -3.20339,1.38539 -3.20339,2.77078l0,4.15617z"/>
  <g id="svg_210">
   <circle id="svg_208" fill="#00233F" r="19.88464" cy="212.95448" cx="692.31317"/>
   <path id="svg_209" fill="#00233F" d="m701.603,362.23021c0,1.03904 0.96102,2.07808 1.92203,2.07808l0,0c0.96102,0 1.92203,-1.03904 1.92203,-2.07808l0,0c0,-1.03904 -0.96102,-2.07808 -1.92203,-2.07808l0,0c-1.28136,0 -1.92203,0.69269 -1.92203,2.07808l0,0z"/>
  </g>
  <circle id="svg_211" fill="#095589" r="10.79451" cy="360.84482" cx="685.58605"/>
  <path id="svg_212" fill="#00233F" d="m685.58605,347.68362c-6.72712,0 -12.17288,5.88791 -12.17288,13.1612s5.44576,13.1612 12.17288,13.1612"/>
  <circle id="svg_213" fill="#38ADD6" r="4.54507" cy="360.84482" cx="685.58605"/>
  <path id="svg_214" fill="#0C86BC" d="m681.74198,356.68865c-1.92203,2.07808 -1.92203,5.54156 0,7.96599c1.92203,2.07808 5.12542,2.07808 7.3678,0"/>
  <circle id="svg_215" fill="#095589" r="10.79449" cy="360.84482" cx="649.38775"/>
  <path id="svg_216" fill="#00233F" d="m649.38775,347.68362c-6.72712,0 -12.17288,5.88791 -12.17288,13.1612s5.44576,13.1612 12.17288,13.1612"/>
  <circle id="svg_217" fill="#38ADD6" r="4.54507" cy="360.84482" cx="649.38775"/>
  <path id="svg_218" fill="#0C86BC" d="m645.86402,356.68865c-1.92203,2.07808 -1.92203,5.54156 0,7.96599c1.92203,2.07808 5.12542,2.07808 7.3678,0"/>
  <path id="svg_219" fill="#00233F" d="m712.49453,301.27307c0,12.12216 8.96949,21.47354 19.86102,21.47354l1.60169,0c11.21186,0 19.86102,-9.69773 19.86102,-21.47354l0,-36.71282c0,-12.12216 -8.96949,-21.47354 -19.86102,-21.47354l-1.60169,0c-11.21186,0 -19.86102,9.69773 -19.86102,21.47354l0,36.71282z"/>
  <path id="svg_220" fill="#095589" d="m734.91826,243.08671l0,0c-11.21186,0 -19.22034,9.69773 -19.22034,21.47354l0,36.36648c0,12.12216 8.64915,21.47354 19.54068,21.47354l0,0"/>
  <g id="svg_223">
   <path id="svg_221" fill="#EA2D83" d="m638.81656,343.52745l0,-4.84886c0,-21.81989 15.69661,-40.1763 35.87797,-40.1763l106.35254,0c20.18136,0 24.34576,18.35641 24.34576,40.1763l0,4.84886l-166.57627,0z"/>
   <path id="svg_222" fill="#EA2D83" d="m682.06232,224.0376c0,31.17127 24.02542,38.79091 53.81695,38.79091c55.41864,0 53.81695,-7.96599 53.81695,-38.79091c0,-58.87906 44.20678,-63.03523 -53.81695,-63.03523c-55.41864,-0.34635 -53.81695,31.86396 -53.81695,63.03523z"/>
  </g>
  <g id="svg_226">
   <path id="svg_224" fill="#A0007A" d="m789.69622,224.0376c0,25.97605 0.96102,35.67378 -31.07288,38.09821c-16.65763,-2.42443 -16.65763,-10.73677 -16.65763,-35.32743c0,-29.78588 0,-61.64984 29.79153,-61.64984c9.61017,0 17.61864,0 24.6661,0c9.93051,7.2733 -6.72712,22.85893 -6.72712,58.87906z"/>
   <path id="svg_225" fill="#A0007A" d="m739.08266,298.50229l41.96441,0c20.18136,0 24.34576,18.35641 24.34576,40.1763l0,4.84886l-102.50848,0l0,-4.84886c0,-21.81989 16.01695,-40.1763 36.19831,-40.1763z"/>
  </g>
  <path id="svg_227" fill="#AEC9D3" d="m626.003,347.33727c0,3.46347 2.56271,6.5806 6.08644,6.5806l173.62373,0c3.20339,0 6.08644,-2.77078 6.08644,-6.5806l0,-0.69269c0,-3.46347 -2.56271,-6.5806 -6.08644,-6.5806l-173.62373,0c-3.20339,0 -6.08644,2.77078 -6.08644,6.5806l0,0.69269l0,0z"/>
  <path id="svg_228" fill="#8DAAB2" d="m626.003,354.26422c0,3.46347 2.56271,6.5806 6.08644,6.5806l173.62373,0c3.20339,0 6.08644,-2.77078 6.08644,-6.5806l0,-0.69269c0,-3.46347 -2.56271,-6.5806 -6.08644,-6.5806l-173.62373,0c-3.20339,0 -6.08644,2.77078 -6.08644,6.5806l0,0.69269l0,0z"/>
  <circle id="svg_229" fill="#095589" r="10.79449" cy="360.84482" cx="793.54029"/>
  <path id="svg_230" fill="#00233F" d="m793.54029,347.68362c-6.72712,0 -12.17288,5.88791 -12.17288,13.1612s5.44576,13.1612 12.17288,13.1612"/>
  <circle id="svg_231" fill="#38ADD6" r="4.54507" cy="360.84482" cx="793.54029"/>
  <path id="svg_232" fill="#0C86BC" d="m790.01656,356.68865c-1.92203,2.07808 -1.92203,5.54156 0,7.96599c1.92203,2.07808 5.12542,2.07808 7.3678,0"/>
  <circle id="svg_233" fill="#095589" r="10.79451" cy="360.84482" cx="757.66232"/>
  <path id="svg_234" fill="#00233F" d="m757.66232,347.68362c-6.72712,0 -12.17288,5.88791 -12.17288,13.1612s5.44576,13.1612 12.17288,13.1612"/>
  <circle id="svg_235" fill="#38ADD6" r="4.54507" cy="360.84482" cx="757.66232"/>
  <path id="svg_236" fill="#0C86BC" d="m753.81826,356.68865c-1.92203,2.07808 -1.92203,5.54156 0,7.96599c1.92203,2.07808 5.12542,2.07808 7.3678,0"/>
  <circle id="svg_237" fill="#095589" r="10.79451" cy="360.84482" cx="721.46402"/>
  <path id="svg_238" fill="#00233F" d="m721.46402,347.68362c-6.72712,0 -12.17288,5.88791 -12.17288,13.1612s5.44576,13.1612 12.17288,13.1612"/>
  <circle id="svg_239" fill="#38ADD6" r="4.54507" cy="360.84482" cx="721.46402"/>
  <g id="svg_243">
   <path id="svg_240" fill="#0C86BC" d="m717.94029,356.68865c-1.92203,2.07808 -1.92203,5.54156 0,7.96599c1.92203,2.07808 5.12542,2.07808 7.3678,0"/>
   <path id="svg_241" fill="#0C86BC" d="m773.99961,362.23021c0,1.03904 0.96102,2.07808 1.92203,2.07808l0,0c0.96102,0 1.92203,-1.03904 1.92203,-2.07808l0,0c0,-1.03904 -0.96102,-2.07808 -1.92203,-2.07808l0,0c-0.96102,0 -1.92203,0.69269 -1.92203,2.07808l0,0z"/>
   <path id="svg_242" fill="#0C86BC" d="m737.80131,362.23021c0,1.03904 0.96102,2.07808 1.92203,2.07808l0,0c0.96102,0 1.92203,-1.03904 1.92203,-2.07808l0,0c0,-1.03904 -0.96102,-2.07808 -1.92203,-2.07808l0,0c-0.96102,0 -1.92203,0.69269 -1.92203,2.07808l0,0z"/>
  </g>
  <circle id="svg_244" fill="#095589" r="19.88461" cy="212.95448" cx="776.24199"/>
  <path id="svg_245" fill="#00233F" d="m753.81826,212.95448c0,13.50755 9.93051,24.24432 22.42373,24.24432s22.42373,-10.73677 22.42373,-24.24432"/>
  <ellipse id="svg_246" fill="#EA2D83" ry="14.54659" rx="8.96949" cy="212.95448" cx="786.49283"/>
  <path id="svg_247" fill="#A0007A" d="m786.49283,227.50107c4.80508,0 8.96949,-6.5806 8.96949,-14.54659s-3.84407,-14.54659 -8.96949,-14.54659"/>
  <path id="svg_248" fill="#AEC9D3" d="m797.06402,275.98971c0.96102,3.46347 4.16441,5.88791 7.68814,4.84886l0,0c3.20339,-1.03904 5.44576,-4.50252 4.48475,-8.31234l-14.73559,-60.61079c-0.96102,-3.46347 -4.16441,-5.88791 -7.68814,-4.84886l0,0c-3.20339,1.03904 -5.44576,4.50252 -4.48475,8.31234l14.73559,60.61079z"/>
  <path id="svg_249" fill="#8DAAB2" d="m797.06402,275.98971c0.96102,3.46347 4.16441,5.88791 7.68814,4.84886l0,0c3.20339,-1.03904 5.44576,-4.50252 4.48475,-8.31234l-14.73559,-60.61079c-0.96102,-3.46347 -4.16441,-5.88791 -7.68814,-4.84886l0,0"/>
  <path id="svg_250" fill="#EA2D83" d="m768.23351,279.45318c0,5.88791 4.48475,12.12216 9.93051,12.12216l30.11186,0c5.44576,0 6.72712,-6.23425 6.72712,-12.12216l0,0c0,-5.88791 -4.48475,-12.12216 -9.93051,-12.12216l-30.11186,0c-5.44576,0 -6.72712,6.23425 -6.72712,12.12216l0,0z"/>
  <path id="svg_251" fill="#A0007A" d="m768.23351,279.79953l0,0c0,5.88791 4.48475,11.77581 9.93051,11.77581l30.11186,0c5.44576,0 6.72712,-5.54156 6.72712,-11.77581l0,0c0,-5.88791 -3.84407,-12.46851 -9.93051,-12.46851"/>
  <path id="svg_252" fill="#FFFB76" d="m773.35893,279.79953c0,1.38539 0.32034,2.77078 1.60169,2.77078l0,0c1.28136,0 1.60169,-1.38539 1.60169,-2.77078l0,-4.15617c0,-1.38539 -0.32034,-2.77078 -1.60169,-2.77078l0,0c-1.28136,0 -1.60169,1.38539 -1.60169,2.77078l0,4.15617z"/>
  <g id="svg_255">
   <path id="svg_253" fill="#8DAAB2" d="m758.94368,207.75927c0,0.69269 0.32034,1.03904 0.96102,1.03904l6.40678,0c0.64068,0 0.96102,-0.34635 0.96102,-1.03904l0,0c0,-0.69269 -0.32034,-1.03904 -0.96102,-1.03904l-6.40678,0c-0.32034,0 -0.96102,0.34635 -0.96102,1.03904l0,0z"/>
   <path id="svg_254" fill="#8DAAB2" d="m761.82673,201.17867c0,0.69269 0.32034,1.03904 0.96102,1.03904l6.40678,0c0.64068,0 0.96102,-0.34635 0.96102,-1.03904l0,0c0,-0.69269 -0.32034,-1.03904 -0.96102,-1.03904l-6.40678,0c-0.64068,0 -0.96102,0.34635 -0.96102,1.03904l0,0z"/>
  </g>
  <g id="svg_259">
   <path id="svg_256" fill="#AEC9D3" d="m773.35893,314.43427c0,0.69269 0.64068,1.38539 1.28136,1.38539l13.45424,0c0.64068,0 1.28136,-0.69269 1.28136,-1.38539l0,-0.69269c0,-0.69269 -0.64068,-1.38539 -1.28136,-1.38539l-13.45424,0c-0.64068,0 -1.28136,0.69269 -1.28136,1.38539l0,0.69269z"/>
   <path id="svg_257" fill="#AEC9D3" d="m773.35893,321.36122c0,0.69269 0.64068,1.38539 1.28136,1.38539l13.45424,0c0.64068,0 1.28136,-0.69269 1.28136,-1.38539l0,-0.69269c0,-0.69269 -0.64068,-1.38539 -1.28136,-1.38539l-13.45424,0c-0.64068,0 -1.28136,0.69269 -1.28136,1.38539l0,0.69269z"/>
   <path id="svg_258" fill="#AEC9D3" d="m773.35893,328.28817c0,0.69269 0.64068,1.38539 1.28136,1.38539l13.45424,0c0.64068,0 1.28136,-0.69269 1.28136,-1.38539l0,-0.69269c0,-0.69269 -0.64068,-1.38539 -1.28136,-1.38539l-13.45424,0c-0.64068,0 -1.28136,0.69269 -1.28136,1.38539l0,0.69269z"/>
  </g>
  <g id="svg_263">
   <path id="svg_260" fill="#8DAAB2" d="m750.93521,273.56528c0.64068,0 1.28136,-0.69269 1.28136,-1.38539l0,0c0,-0.69269 -0.64068,-1.38539 -1.28136,-1.38539l-33.95593,0c-0.64068,0 -1.28136,0.69269 -1.28136,1.38539l0,0c0,0.69269 0.64068,1.38539 1.28136,1.38539"/>
   <path id="svg_261" fill="#8DAAB2" d="m715.69792,283.26301c0,0.69269 0.64068,1.38539 1.28136,1.38539l32.67458,0c0.64068,0 1.28136,-0.69269 1.28136,-1.38539l0,-0.69269c0,-0.69269 -0.64068,-1.38539 -1.28136,-1.38539l-32.67458,0c-0.64068,0 -1.28136,0.69269 -1.28136,1.38539l0,0.69269z"/>
   <path id="svg_262" fill="#8DAAB2" d="m715.69792,293.65343c0,0.69269 0.64068,1.38539 1.28136,1.38539l32.67458,0c0.64068,0 1.28136,-0.69269 1.28136,-1.38539l0,-0.69269c0,-0.69269 -0.64068,-1.38539 -1.28136,-1.38539l-32.67458,0c-0.64068,0 -1.28136,0.69269 -1.28136,1.38539l0,0.69269z"/>
  </g>
  <ellipse id="svg_264" fill="#FFFB76" ry="6.5806" rx="24.6661" cy="191.1346" cx="710.57249"/>
  <g id="svg_269">
   <path id="svg_265" fill="#FFD67B" d="m685.90639,191.1346c0,3.80982 10.89153,6.5806 24.6661,6.5806s24.6661,-3.11713 24.6661,-6.5806"/>
   <ellipse id="svg_266" fill="#FFD67B" ry="2.77078" rx="1.60169" cy="211.91544" cx="704.80639"/>
   <ellipse id="svg_267" fill="#FFD67B" ry="2.77078" rx="1.60169" cy="223.34491" cx="704.80639"/>
   <ellipse id="svg_268" fill="#FFD67B" ry="2.77078" rx="1.60169" cy="234.77437" cx="704.80639"/>
  </g>
  <g opacity="0.5" id="svg_405">
   <path stroke-dasharray="2,2" id="svg_338" fill="#AEC9D3" d="m144.18435,121.70083c-0.44237,1.35731 -1.91695,2.30742 -3.53898,1.90023l0,0c-1.47458,-0.40719 -2.50678,-1.7645 -2.06441,-3.25754l6.78305,-23.75288c0.44237,-1.35731 1.91695,-2.30742 3.53898,-1.90023l0,0c1.47458,0.40719 2.50678,1.7645 2.06441,3.25754l-6.78305,23.75288z"/>
   <path stroke-dasharray="2,2" id="svg_339" fill="#8DAAB2" d="m144.18435,121.70083c-0.44237,1.35731 -1.91695,2.30742 -3.53898,1.90023l0,0c-1.47458,-0.40719 -2.50678,-1.7645 -2.06441,-3.25754l6.78305,-23.75288c0.44237,-1.35731 1.91695,-2.30742 3.53898,-1.90023l0,0"/>
   <path stroke-dasharray="2,2" id="svg_340" fill="#EA2D83" d="m157.45554,123.05814c0,2.30742 -2.06441,4.75058 -4.57119,4.75058l-13.86102,0c-2.50678,0 -3.09661,-2.44315 -3.09661,-4.75058l0,0c0,-2.30742 2.06441,-4.75058 4.57119,-4.75058l13.86102,0c2.50678,0 3.09661,2.44315 3.09661,4.75058l0,0z"/>
   <path stroke-dasharray="2,2" id="svg_341" fill="#A0007A" d="m157.45554,123.19387l0,0c0,2.30742 -2.06441,4.61484 -4.57119,4.61484l-13.86102,0c-2.50678,0 -3.09661,-2.17169 -3.09661,-4.61484l0,0c0,-2.30742 1.76949,-4.88631 4.57119,-4.88631"/>
   <path stroke-dasharray="2,2" id="svg_342" fill="#FFFB76" d="m155.83351,123.19387c0,0.54292 -0.88475,1.08585 -1.47458,1.08585l0,0c-0.58983,0 -1.47458,-0.54292 -1.47458,-1.08585l0,-1.62877c0,-0.54292 0.88475,-1.08585 1.47458,-1.08585l0,0c0.58983,0 1.47458,0.54292 1.47458,1.08585l0,1.62877z"/>
   <g id="svg_345">
    <circle stroke-dasharray="2,2" id="svg_343" fill="#00233F" r="9.15324" cy="96.99784" cx="144.47927"/>
    <path stroke-dasharray="2,2" id="svg_344" fill="#00233F" d="m140.203,155.49778c0,0.40719 -0.44237,0.81438 -0.88475,0.81438l0,0c-0.44237,0 -0.88475,-0.40719 -0.88475,-0.81438l0,0c0,-0.40719 0.44237,-0.81438 0.88475,-0.81438l0,0c0.58983,0 0.88475,0.27146 0.88475,0.81438l0,0z"/>
   </g>
   <circle stroke-dasharray="2,2" id="svg_346" fill="#095589" r="4.96889" cy="154.95486" cx="147.57588"/>
   <path stroke-dasharray="2,2" id="svg_347" fill="#00233F" d="m147.57588,149.79709c3.09661,0 5.60339,2.30742 5.60339,5.15777s-2.50678,5.15777 -5.60339,5.15777"/>
   <circle stroke-dasharray="2,2" id="svg_348" fill="#38ADD6" r="2.09217" cy="154.95486" cx="147.57588"/>
   <path stroke-dasharray="2,2" id="svg_349" fill="#0C86BC" d="m149.34537,153.32609c0.88475,0.81438 0.88475,2.17169 0,3.12181c-0.88475,0.81438 -2.35932,0.81438 -3.39153,0"/>
   <circle stroke-dasharray="2,2" id="svg_350" fill="#095589" r="4.96889" cy="154.95486" cx="164.23859"/>
   <path stroke-dasharray="2,2" id="svg_351" fill="#00233F" d="m164.23859,149.79709c3.09661,0 5.60339,2.30742 5.60339,5.15777s-2.50678,5.15777 -5.60339,5.15777"/>
   <circle stroke-dasharray="2,2" id="svg_352" fill="#38ADD6" r="2.09216" cy="154.95486" cx="164.23859"/>
   <path stroke-dasharray="2,2" id="svg_353" fill="#0C86BC" d="m165.86062,153.32609c0.88475,0.81438 0.88475,2.17169 0,3.12181c-0.88475,0.81438 -2.35932,0.81438 -3.39153,0"/>
   <path stroke-dasharray="2,2" id="svg_354" fill="#00233F" d="m135.18944,131.60917c0,4.75058 -4.12881,8.41531 -9.14237,8.41531l-0.73729,0c-5.16102,0 -9.14237,-3.80046 -9.14237,-8.41531l0,-14.38746c0,-4.75058 4.12881,-8.41531 9.14237,-8.41531l0.73729,0c5.16102,0 9.14237,3.80046 9.14237,8.41531l0,14.38746z"/>
   <path stroke-dasharray="2,2" id="svg_355" fill="#095589" d="m124.86741,108.80641l0,0c5.16102,0 8.84746,3.80046 8.84746,8.41531l0,14.25173c0,4.75058 -3.98136,8.41531 -8.99491,8.41531l0,0"/>
   <g id="svg_358">
    <path stroke-dasharray="2,2" id="svg_356" fill="#EA2D83" d="m169.10469,148.16832l0,-1.90023c0,-8.55104 -7.22542,-15.74476 -16.51525,-15.74476l-48.95593,0c-9.28983,0 -11.20678,7.19373 -11.20678,15.74476l0,1.90023l76.67796,0z"/>
    <path stroke-dasharray="2,2" id="svg_357" fill="#EA2D83" d="m149.19791,101.34122c0,12.21577 -11.05932,15.20184 -24.77288,15.20184c-25.51017,0 -24.77288,-3.12181 -24.77288,-15.20184c0,-23.07422 -20.34915,-24.70299 24.77288,-24.70299c25.51017,-0.13573 24.77288,12.48723 24.77288,24.70299z"/>
   </g>
   <g id="svg_361">
    <path stroke-dasharray="2,2" id="svg_359" fill="#A0007A" d="m99.65215,101.34122c0,10.1798 -0.44237,13.98027 14.30339,14.93038c7.6678,-0.95012 7.6678,-4.20765 7.6678,-13.84453c0,-11.67284 0,-24.16007 -13.71356,-24.16007c-4.42373,0 -8.11017,0 -11.35424,0c-4.57119,2.85035 3.09661,8.95823 3.09661,23.07422z"/>
    <path stroke-dasharray="2,2" id="svg_360" fill="#A0007A" d="m122.95046,130.52333l-19.31695,0c-9.28983,0 -11.20678,7.19373 -11.20678,15.74476l0,1.90023l47.18644,0l0,-1.90023c0,-8.55104 -7.37288,-15.74476 -16.66271,-15.74476z"/>
   </g>
   <path stroke-dasharray="2,2" id="svg_362" fill="#AEC9D3" d="m175.003,149.66136c0,1.35731 -1.17966,2.57888 -2.80169,2.57888l-79.92203,0c-1.47458,0 -2.80169,-1.08585 -2.80169,-2.57888l0,-0.27146c0,-1.35731 1.17966,-2.57888 2.80169,-2.57888l79.92203,0c1.47458,0 2.80169,1.08585 2.80169,2.57888l0,0.27146l0,0z"/>
   <path stroke-dasharray="2,2" id="svg_363" fill="#8DAAB2" d="m175.003,152.37597c0,1.35731 -1.17966,2.57888 -2.80169,2.57888l-79.92203,0c-1.47458,0 -2.80169,-1.08585 -2.80169,-2.57888l0,-0.27146c0,-1.35731 1.17966,-2.57888 2.80169,-2.57888l79.92203,0c1.47458,0 2.80169,1.08585 2.80169,2.57888l0,0.27146l0,0z"/>
   <circle stroke-dasharray="2,2" id="svg_364" fill="#095589" r="4.96889" cy="154.95486" cx="97.88266"/>
   <path stroke-dasharray="2,2" id="svg_365" fill="#00233F" d="m97.88266,149.79709c3.09661,0 5.60339,2.30742 5.60339,5.15777s-2.50678,5.15777 -5.60339,5.15777"/>
   <circle stroke-dasharray="2,2" id="svg_366" fill="#38ADD6" r="2.09216" cy="154.95486" cx="97.88266"/>
   <path stroke-dasharray="2,2" id="svg_367" fill="#0C86BC" d="m99.5047,153.32609c0.88475,0.81438 0.88475,2.17169 0,3.12181c-0.88475,0.81438 -2.35932,0.81438 -3.39153,0"/>
   <circle stroke-dasharray="2,2" id="svg_368" fill="#095589" r="4.9689" cy="154.95486" cx="114.39792"/>
   <path stroke-dasharray="2,2" id="svg_369" fill="#00233F" d="m114.39792,149.79709c3.09661,0 5.60339,2.30742 5.60339,5.15777s-2.50678,5.15777 -5.60339,5.15777"/>
   <circle stroke-dasharray="2,2" id="svg_370" fill="#38ADD6" r="2.09217" cy="154.95486" cx="114.39792"/>
   <path stroke-dasharray="2,2" id="svg_371" fill="#0C86BC" d="m116.16741,153.32609c0.88475,0.81438 0.88475,2.17169 0,3.12181c-0.88475,0.81438 -2.35932,0.81438 -3.39153,0"/>
   <circle stroke-dasharray="2,2" id="svg_372" fill="#095589" r="4.9689" cy="154.95486" cx="131.06063"/>
   <path stroke-dasharray="2,2" id="svg_373" fill="#00233F" d="m131.06063,149.79709c3.09661,0 5.60339,2.30742 5.60339,5.15777s-2.50678,5.15777 -5.60339,5.15777"/>
   <circle stroke-dasharray="2,2" id="svg_374" fill="#38ADD6" r="2.09217" cy="154.95486" cx="131.06063"/>
   <g id="svg_378">
    <path stroke-dasharray="2,2" id="svg_375" fill="#0C86BC" d="m132.68266,153.32609c0.88475,0.81438 0.88475,2.17169 0,3.12181c-0.88475,0.81438 -2.35932,0.81438 -3.39153,0"/>
    <path stroke-dasharray="2,2" id="svg_376" fill="#0C86BC" d="m106.87758,155.49778c0,0.40719 -0.44237,0.81438 -0.88475,0.81438l0,0c-0.44237,0 -0.88475,-0.40719 -0.88475,-0.81438l0,0c0,-0.40719 0.44237,-0.81438 0.88475,-0.81438l0,0c0.44237,0 0.88475,0.27146 0.88475,0.81438l0,0z"/>
    <path stroke-dasharray="2,2" id="svg_377" fill="#0C86BC" d="m123.54029,155.49778c0,0.40719 -0.44237,0.81438 -0.88475,0.81438l0,0c-0.44237,0 -0.88475,-0.40719 -0.88475,-0.81438l0,0c0,-0.40719 0.44237,-0.81438 0.88475,-0.81438l0,0c0.44237,0 0.88475,0.27146 0.88475,0.81438l0,0z"/>
   </g>
   <circle stroke-dasharray="2,2" id="svg_379" fill="#095589" r="9.15324" cy="96.99784" cx="105.84537"/>
   <path stroke-dasharray="2,2" id="svg_380" fill="#00233F" d="m116.16741,96.99784c0,5.2935 -4.57119,9.50115 -10.32203,9.50115s-10.32203,-4.20765 -10.32203,-9.50115"/>
   <ellipse stroke-dasharray="2,2" id="svg_381" fill="#EA2D83" ry="5.70069" rx="4.12881" cy="96.99784" cx="101.12673"/>
   <path stroke-dasharray="2,2" id="svg_382" fill="#A0007A" d="m101.12673,102.69853c-2.21186,0 -4.12881,-2.57888 -4.12881,-5.70069s1.76949,-5.70069 4.12881,-5.70069"/>
   <path stroke-dasharray="2,2" id="svg_383" fill="#AEC9D3" d="m96.26063,121.70083c-0.44237,1.35731 -1.91695,2.30742 -3.53898,1.90023l0,0c-1.47458,-0.40719 -2.50678,-1.7645 -2.06441,-3.25754l6.78305,-23.75288c0.44237,-1.35731 1.91695,-2.30742 3.53898,-1.90023l0,0c1.47458,0.40719 2.50678,1.7645 2.06441,3.25754l-6.78305,23.75288z"/>
   <path stroke-dasharray="2,2" id="svg_384" fill="#8DAAB2" d="m96.26063,121.70083c-0.44237,1.35731 -1.91695,2.30742 -3.53898,1.90023l0,0c-1.47458,-0.40719 -2.50678,-1.7645 -2.06441,-3.25754l6.78305,-23.75288c0.44237,-1.35731 1.91695,-2.30742 3.53898,-1.90023l0,0"/>
   <path stroke-dasharray="2,2" id="svg_385" fill="#EA2D83" d="m109.53181,123.05814c0,2.30742 -2.06441,4.75058 -4.57119,4.75058l-13.86102,0c-2.50678,0 -3.09661,-2.44315 -3.09661,-4.75058l0,0c0,-2.30742 2.06441,-4.75058 4.57119,-4.75058l13.86102,0c2.50678,0 3.09661,2.44315 3.09661,4.75058l0,0z"/>
   <path stroke-dasharray="2,2" id="svg_386" fill="#A0007A" d="m109.53181,123.19387l0,0c0,2.30742 -2.06441,4.61484 -4.57119,4.61484l-13.86102,0c-2.50678,0 -3.09661,-2.17169 -3.09661,-4.61484l0,0c0,-2.30742 1.76949,-4.88631 4.57119,-4.88631"/>
   <path stroke-dasharray="2,2" id="svg_387" fill="#FFFB76" d="m107.17249,123.19387c0,0.54292 -0.14746,1.08585 -0.73729,1.08585l0,0c-0.58983,0 -0.73729,-0.54292 -0.73729,-1.08585l0,-1.62877c0,-0.54292 0.14746,-1.08585 0.73729,-1.08585l0,0c0.58983,0 0.73729,0.54292 0.73729,1.08585l0,1.62877z"/>
   <g id="svg_390">
    <path stroke-dasharray="2,2" id="svg_388" fill="#8DAAB2" d="m113.80809,94.96187c0,0.27146 -0.14746,0.40719 -0.44237,0.40719l-2.94915,0c-0.29492,0 -0.44237,-0.13573 -0.44237,-0.40719l0,0c0,-0.27146 0.14746,-0.40719 0.44237,-0.40719l2.94915,0c0.14746,0 0.44237,0.13573 0.44237,0.40719l0,0z"/>
    <path stroke-dasharray="2,2" id="svg_389" fill="#8DAAB2" d="m112.48097,92.38299c0,0.27146 -0.14746,0.40719 -0.44237,0.40719l-2.94915,0c-0.29492,0 -0.44237,-0.13573 -0.44237,-0.40719l0,0c0,-0.27146 0.14746,-0.40719 0.44237,-0.40719l2.94915,0c0.29492,0 0.44237,0.13573 0.44237,0.40719l0,0z"/>
   </g>
   <g id="svg_394">
    <path stroke-dasharray="2,2" id="svg_391" fill="#AEC9D3" d="m107.17249,136.76694c0,0.27146 -0.29492,0.54292 -0.58983,0.54292l-6.19322,0c-0.29492,0 -0.58983,-0.27146 -0.58983,-0.54292l0,-0.27146c0,-0.27146 0.29492,-0.54292 0.58983,-0.54292l6.19322,0c0.29492,0 0.58983,0.27146 0.58983,0.54292l0,0.27146z"/>
    <path stroke-dasharray="2,2" id="svg_392" fill="#AEC9D3" d="m107.17249,139.48155c0,0.27146 -0.29492,0.54292 -0.58983,0.54292l-6.19322,0c-0.29492,0 -0.58983,-0.27146 -0.58983,-0.54292l0,-0.27146c0,-0.27146 0.29492,-0.54292 0.58983,-0.54292l6.19322,0c0.29492,0 0.58983,0.27146 0.58983,0.54292l0,0.27146z"/>
    <path stroke-dasharray="2,2" id="svg_393" fill="#AEC9D3" d="m107.17249,142.19617c0,0.27146 -0.29492,0.54292 -0.58983,0.54292l-6.19322,0c-0.29492,0 -0.58983,-0.27146 -0.58983,-0.54292l0,-0.27146c0,-0.27146 0.29492,-0.54292 0.58983,-0.54292l6.19322,0c0.29492,0 0.58983,0.27146 0.58983,0.54292l0,0.27146z"/>
   </g>
   <g id="svg_398">
    <path stroke-dasharray="2,2" id="svg_395" fill="#8DAAB2" d="m117.49453,120.75071c-0.29492,0 -0.58983,-0.27146 -0.58983,-0.54292l0,0c0,-0.27146 0.29492,-0.54292 0.58983,-0.54292l15.63051,0c0.29492,0 0.58983,0.27146 0.58983,0.54292l0,0c0,0.27146 -0.29492,0.54292 -0.58983,0.54292"/>
    <path stroke-dasharray="2,2" id="svg_396" fill="#8DAAB2" d="m133.71486,124.55117c0,0.27146 -0.29492,0.54292 -0.58983,0.54292l-15.04068,0c-0.29492,0 -0.58983,-0.27146 -0.58983,-0.54292l0,-0.27146c0,-0.27146 0.29492,-0.54292 0.58983,-0.54292l15.04068,0c0.29492,0 0.58983,0.27146 0.58983,0.54292l0,0.27146z"/>
    <path stroke-dasharray="2,2" id="svg_397" fill="#8DAAB2" d="m133.71486,128.6231c0,0.27146 -0.29492,0.54292 -0.58983,0.54292l-15.04068,0c-0.29492,0 -0.58983,-0.27146 -0.58983,-0.54292l0,-0.27146c0,-0.27146 0.29492,-0.54292 0.58983,-0.54292l15.04068,0c0.29492,0 0.58983,0.27146 0.58983,0.54292l0,0.27146z"/>
   </g>
   <ellipse stroke-dasharray="2,2" id="svg_399" fill="#FFFB76" ry="2.57888" rx="11.35424" cy="88.4468" cx="136.07419"/>
   <g id="svg_404">
    <path stroke-dasharray="2,2" id="svg_400" fill="#FFD67B" d="m147.42842,88.4468c0,1.49304 -5.01356,2.57888 -11.35424,2.57888s-11.35424,-1.22158 -11.35424,-2.57888"/>
    <ellipse stroke-dasharray="2,2" id="svg_401" fill="#FFD67B" ry="1.08585" rx="0.73729" cy="96.59064" cx="138.72842"/>
    <ellipse stroke-dasharray="2,2" id="svg_402" fill="#FFD67B" ry="1.08585" rx="0.73729" cy="101.06976" cx="138.72842"/>
    <ellipse stroke-dasharray="2,2" id="svg_403" fill="#FFD67B" ry="1.08585" rx="0.73729" cy="105.54887" cx="138.72842"/>
   </g>
  </g>
  <g opacity="0.54" id="svg_473">
   <path id="svg_406" fill="#AEC9D3" d="m731.05039,51.11085c0.41695,1.26838 1.80678,2.15625 3.33559,1.77573l0,0c1.38983,-0.38051 2.36271,-1.64889 1.94576,-3.04411l-6.39322,-22.19666c-0.41695,-1.26838 -1.80678,-2.15625 -3.33559,-1.77573l0,0c-1.38983,0.38051 -2.36271,1.64889 -1.94576,3.04411l6.39322,22.19666z"/>
   <path id="svg_407" fill="#8DAAB2" d="m731.05039,51.11085c0.41695,1.26838 1.80678,2.15625 3.33559,1.77573l0,0c1.38983,-0.38051 2.36271,-1.64889 1.94576,-3.04411l-6.39322,-22.19666c-0.41695,-1.26838 -1.80678,-2.15625 -3.33559,-1.77573l0,0"/>
   <path id="svg_408" fill="#EA2D83" d="m718.54192,52.37923c0,2.15625 1.94576,4.43933 4.30847,4.43933l13.06441,0c2.36271,0 2.91864,-2.28309 2.91864,-4.43933l0,0c0,-2.15625 -1.94576,-4.43933 -4.30847,-4.43933l-13.06441,0c-2.36271,0 -2.91864,2.28309 -2.91864,4.43933l0,0z"/>
   <path id="svg_409" fill="#A0007A" d="m718.54192,52.50607l0,0c0,2.15625 1.94576,4.31249 4.30847,4.31249l13.06441,0c2.36271,0 2.91864,-2.02941 2.91864,-4.31249l0,0c0,-2.15625 -1.6678,-4.56617 -4.30847,-4.56617"/>
   <path id="svg_410" fill="#FFFB76" d="m720.07073,52.50607c0,0.50735 0.8339,1.0147 1.38983,1.0147l0,0c0.55593,0 1.38983,-0.50735 1.38983,-1.0147l0,-1.52206c0,-0.50735 -0.8339,-1.0147 -1.38983,-1.0147l0,0c-0.55593,0 -1.38983,0.50735 -1.38983,1.0147l0,1.52206z"/>
   <g id="svg_413">
    <circle id="svg_411" fill="#00233F" r="3.15942" cy="28.02633" cx="730.77243"/>
    <path id="svg_412" fill="#00233F" d="m734.80293,82.69353c0,0.38051 0.41695,0.76103 0.8339,0.76103l0,0c0.41695,0 0.8339,-0.38051 0.8339,-0.76103l0,0c0,-0.38051 -0.41695,-0.76103 -0.8339,-0.76103l0,0c-0.55593,0 -0.8339,0.25368 -0.8339,0.76103l0,0z"/>
   </g>
   <circle id="svg_414" fill="#095589" r="1.71511" cy="82.18618" cx="727.85378"/>
   <path id="svg_415" fill="#00233F" d="m727.85378,77.36633c-2.91864,0 -5.28136,2.15625 -5.28136,4.81985s2.36271,4.81985 5.28136,4.81985"/>
   <circle id="svg_416" fill="#38ADD6" r="0.72215" cy="82.18618" cx="727.85378"/>
   <path id="svg_417" fill="#0C86BC" d="m726.18598,80.66412c-0.8339,0.76103 -0.8339,2.02941 0,2.91728c0.8339,0.76103 2.22373,0.76103 3.19661,0"/>
   <circle id="svg_418" fill="#095589" r="1.71511" cy="82.18618" cx="712.1487"/>
   <path id="svg_419" fill="#00233F" d="m712.1487,77.36633c-2.91864,0 -5.28136,2.15625 -5.28136,4.81985s2.36271,4.81985 5.28136,4.81985"/>
   <circle id="svg_420" fill="#38ADD6" r="0.72215" cy="82.18618" cx="712.1487"/>
   <path id="svg_421" fill="#0C86BC" d="m710.61988,80.66412c-0.8339,0.76103 -0.8339,2.02941 0,2.91728c0.8339,0.76103 2.22373,0.76103 3.19661,0"/>
   <path id="svg_422" fill="#00233F" d="m739.52836,60.37003c0,4.43933 3.89153,7.86396 8.61695,7.86396l0.69492,0c4.86441,0 8.61695,-3.55147 8.61695,-7.86396l0,-13.44483c0,-4.43933 -3.89153,-7.86396 -8.61695,-7.86396l-0.69492,0c-4.86441,0 -8.61695,3.55147 -8.61695,7.86396l0,13.44483z"/>
   <path id="svg_423" fill="#095589" d="m749.25717,39.06124l0,0c-4.86441,0 -8.33898,3.55147 -8.33898,7.86396l0,13.318c0,4.43933 3.75254,7.86396 8.47797,7.86396l0,0"/>
   <g id="svg_426">
    <path id="svg_424" fill="#EA2D83" d="m707.56226,75.84428l0,-1.77573c0,-7.9908 6.81017,-14.71322 15.5661,-14.71322l46.14237,0c8.75593,0 10.56271,6.72242 10.56271,14.71322l0,1.77573l-72.27118,0z"/>
    <path id="svg_425" fill="#EA2D83" d="m726.32497,32.08514c0,11.41543 10.42373,14.20586 23.34915,14.20586c24.04407,0 23.34915,-2.91728 23.34915,-14.20586c0,-21.56247 19.17966,-23.08453 -23.34915,-23.08453c-24.04407,-0.12684 -23.34915,11.6691 -23.34915,23.08453z"/>
   </g>
   <g id="svg_429">
    <path id="svg_427" fill="#A0007A" d="m773.02327,32.08514c0,9.51285 0.41695,13.06432 -13.48136,13.95219c-7.22712,-0.88787 -7.22712,-3.93198 -7.22712,-12.93748c0,-10.90807 0,-22.57718 12.92542,-22.57718c4.16949,0 7.64407,0 10.70169,0c4.30847,2.6636 -2.91864,8.37131 -2.91864,21.56247z"/>
    <path id="svg_428" fill="#A0007A" d="m751.06395,59.35533l18.20678,0c8.75593,0 10.56271,6.72242 10.56271,14.71322l0,1.77573l-44.47458,0l0,-1.77573c0,-7.9908 6.94915,-14.71322 15.70508,-14.71322z"/>
   </g>
   <path id="svg_430" fill="#AEC9D3" d="m702.00293,77.2395c0,1.26838 1.11186,2.40992 2.64068,2.40992l75.32881,0c1.38983,0 2.64068,-1.0147 2.64068,-2.40992l0,-0.25368c0,-1.26838 -1.11186,-2.40992 -2.64068,-2.40992l-75.32881,0c-1.38983,0 -2.64068,1.0147 -2.64068,2.40992l0,0.25368l0,0z"/>
   <path id="svg_431" fill="#8DAAB2" d="m702.00293,79.77626c0,1.26838 1.11186,2.40992 2.64068,2.40992l75.32881,0c1.38983,0 2.64068,-1.0147 2.64068,-2.40992l0,-0.25368c0,-1.26838 -1.11186,-2.40992 -2.64068,-2.40992l-75.32881,0c-1.38983,0 -2.64068,1.0147 -2.64068,2.40992l0,0.25368l0,0z"/>
   <circle id="svg_432" fill="#095589" r="1.71511" cy="82.18618" cx="774.69107"/>
   <path id="svg_433" fill="#00233F" d="m774.69107,77.36633c-2.91864,0 -5.28136,2.15625 -5.28136,4.81985s2.36271,4.81985 5.28136,4.81985"/>
   <circle id="svg_434" fill="#38ADD6" r="0.72215" cy="82.18618" cx="774.69107"/>
   <path id="svg_435" fill="#0C86BC" d="m773.16225,80.66412c-0.8339,0.76103 -0.8339,2.02941 0,2.91728c0.8339,0.76103 2.22373,0.76103 3.19661,0"/>
   <circle id="svg_436" fill="#095589" r="1.71511" cy="82.18618" cx="759.12497"/>
   <path id="svg_437" fill="#00233F" d="m759.12497,77.36633c-2.91864,0 -5.28136,2.15625 -5.28136,4.81985s2.36271,4.81985 5.28136,4.81985"/>
   <circle id="svg_438" fill="#38ADD6" r="0.72215" cy="82.18618" cx="759.12497"/>
   <path id="svg_439" fill="#0C86BC" d="m757.45717,80.66412c-0.8339,0.76103 -0.8339,2.02941 0,2.91728c0.8339,0.76103 2.22373,0.76103 3.19661,0"/>
   <circle id="svg_440" fill="#095589" r="1.71511" cy="82.18618" cx="743.41988"/>
   <path id="svg_441" fill="#00233F" d="m743.41988,77.36633c-2.91864,0 -5.28136,2.15625 -5.28136,4.81985s2.36271,4.81985 5.28136,4.81985"/>
   <circle id="svg_442" fill="#38ADD6" r="0.72215" cy="82.18618" cx="743.41988"/>
   <g id="svg_446">
    <path id="svg_443" fill="#0C86BC" d="m741.89107,80.66412c-0.8339,0.76103 -0.8339,2.02941 0,2.91728c0.8339,0.76103 2.22373,0.76103 3.19661,0"/>
    <path id="svg_444" fill="#0C86BC" d="m766.2131,82.69353c0,0.38051 0.41695,0.76103 0.8339,0.76103l0,0c0.41695,0 0.8339,-0.38051 0.8339,-0.76103l0,0c0,-0.38051 -0.41695,-0.76103 -0.8339,-0.76103l0,0c-0.41695,0 -0.8339,0.25368 -0.8339,0.76103l0,0z"/>
    <path id="svg_445" fill="#0C86BC" d="m750.50802,82.69353c0,0.38051 0.41695,0.76103 0.8339,0.76103l0,0c0.41695,0 0.8339,-0.38051 0.8339,-0.76103l0,0c0,-0.38051 -0.41695,-0.76103 -0.8339,-0.76103l0,0c-0.41695,0 -0.8339,0.25368 -0.8339,0.76103l0,0z"/>
   </g>
   <circle id="svg_447" fill="#095589" r="3.15942" cy="28.02633" cx="767.18598"/>
   <path id="svg_448" fill="#00233F" d="m757.45717,28.02633c0,4.94668 4.30847,8.87866 9.72881,8.87866s9.72881,-3.93198 9.72881,-8.87866"/>
   <ellipse id="svg_449" fill="#EA2D83" ry="5.3272" rx="3.89153" cy="28.02633" cx="771.63344"/>
   <path id="svg_450" fill="#A0007A" d="m771.63344,33.35352c2.08475,0 3.89153,-2.40992 3.89153,-5.3272s-1.6678,-5.3272 -3.89153,-5.3272"/>
   <path id="svg_451" fill="#AEC9D3" d="m776.21988,51.11085c0.41695,1.26838 1.80678,2.15625 3.33559,1.77573l0,0c1.38983,-0.38051 2.36271,-1.64889 1.94576,-3.04411l-6.39322,-22.19666c-0.41695,-1.26838 -1.80678,-2.15625 -3.33559,-1.77573l0,0c-1.38983,0.38051 -2.36271,1.64889 -1.94576,3.04411l6.39322,22.19666z"/>
   <path id="svg_452" fill="#8DAAB2" d="m776.21988,51.11085c0.41695,1.26838 1.80678,2.15625 3.33559,1.77573l0,0c1.38983,-0.38051 2.36271,-1.64889 1.94576,-3.04411l-6.39322,-22.19666c-0.41695,-1.26838 -1.80678,-2.15625 -3.33559,-1.77573l0,0"/>
   <path id="svg_453" fill="#EA2D83" d="m763.71141,52.37923c0,2.15625 1.94576,4.43933 4.30847,4.43933l13.06441,0c2.36271,0 2.91864,-2.28309 2.91864,-4.43933l0,0c0,-2.15625 -1.94576,-4.43933 -4.30847,-4.43933l-13.06441,0c-2.36271,0 -2.91864,2.28309 -2.91864,4.43933l0,0z"/>
   <path id="svg_454" fill="#A0007A" d="m763.71141,52.50607l0,0c0,2.15625 1.94576,4.31249 4.30847,4.31249l13.06441,0c2.36271,0 2.91864,-2.02941 2.91864,-4.31249l0,0c0,-2.15625 -1.6678,-4.56617 -4.30847,-4.56617"/>
   <path id="svg_455" fill="#FFFB76" d="m765.93514,52.50607c0,0.50735 0.13898,1.0147 0.69492,1.0147l0,0c0.55593,0 0.69492,-0.50735 0.69492,-1.0147l0,-1.52206c0,-0.50735 -0.13898,-1.0147 -0.69492,-1.0147l0,0c-0.55593,0 -0.69492,0.50735 -0.69492,1.0147l0,1.52206z"/>
   <g id="svg_458">
    <path id="svg_456" fill="#8DAAB2" d="m759.6809,26.12375c0,0.25368 0.13898,0.38051 0.41695,0.38051l2.77966,0c0.27797,0 0.41695,-0.12684 0.41695,-0.38051l0,0c0,-0.25368 -0.13898,-0.38051 -0.41695,-0.38051l-2.77966,0c-0.13898,0 -0.41695,0.12684 -0.41695,0.38051l0,0z"/>
    <path id="svg_457" fill="#8DAAB2" d="m760.93175,23.71383c0,0.25368 0.13898,0.38051 0.41695,0.38051l2.77966,0c0.27797,0 0.41695,-0.12684 0.41695,-0.38051l0,0c0,-0.25368 -0.13898,-0.38051 -0.41695,-0.38051l-2.77966,0c-0.27797,0 -0.41695,0.12684 -0.41695,0.38051l0,0z"/>
   </g>
   <g id="svg_462">
    <path id="svg_459" fill="#AEC9D3" d="m765.93514,65.18988c0,0.25368 0.27797,0.50735 0.55593,0.50735l5.83729,0c0.27797,0 0.55593,-0.25368 0.55593,-0.50735l0,-0.25368c0,-0.25368 -0.27797,-0.50735 -0.55593,-0.50735l-5.83729,0c-0.27797,0 -0.55593,0.25368 -0.55593,0.50735l0,0.25368z"/>
    <path id="svg_460" fill="#AEC9D3" d="m765.93514,67.72664c0,0.25368 0.27797,0.50735 0.55593,0.50735l5.83729,0c0.27797,0 0.55593,-0.25368 0.55593,-0.50735l0,-0.25368c0,-0.25368 -0.27797,-0.50735 -0.55593,-0.50735l-5.83729,0c-0.27797,0 -0.55593,0.25368 -0.55593,0.50735l0,0.25368z"/>
    <path id="svg_461" fill="#AEC9D3" d="m765.93514,70.2634c0,0.25368 0.27797,0.50735 0.55593,0.50735l5.83729,0c0.27797,0 0.55593,-0.25368 0.55593,-0.50735l0,-0.25368c0,-0.25368 -0.27797,-0.50735 -0.55593,-0.50735l-5.83729,0c-0.27797,0 -0.55593,0.25368 -0.55593,0.50735l0,0.25368z"/>
   </g>
   <g id="svg_466">
    <path id="svg_463" fill="#8DAAB2" d="m756.20632,50.22299c0.27797,0 0.55593,-0.25368 0.55593,-0.50735l0,0c0,-0.25368 -0.27797,-0.50735 -0.55593,-0.50735l-14.7322,0c-0.27797,0 -0.55593,0.25368 -0.55593,0.50735l0,0c0,0.25368 0.27797,0.50735 0.55593,0.50735"/>
    <path id="svg_464" fill="#8DAAB2" d="m740.91819,53.77445c0,0.25368 0.27797,0.50735 0.55593,0.50735l14.17627,0c0.27797,0 0.55593,-0.25368 0.55593,-0.50735l0,-0.25368c0,-0.25368 -0.27797,-0.50735 -0.55593,-0.50735l-14.17627,0c-0.27797,0 -0.55593,0.25368 -0.55593,0.50735l0,0.25368z"/>
    <path id="svg_465" fill="#8DAAB2" d="m740.91819,57.5796c0,0.25368 0.27797,0.50735 0.55593,0.50735l14.17627,0c0.27797,0 0.55593,-0.25368 0.55593,-0.50735l0,-0.25368c0,-0.25368 -0.27797,-0.50735 -0.55593,-0.50735l-14.17627,0c-0.27797,0 -0.55593,0.25368 -0.55593,0.50735l0,0.25368z"/>
   </g>
   <ellipse id="svg_467" fill="#FFFB76" ry="2.40992" rx="10.70169" cy="20.03553" cx="738.69446"/>
   <g id="svg_472">
    <path id="svg_468" fill="#FFD67B" d="m727.99276,20.03553c0,1.39522 4.72542,2.40992 10.70169,2.40992s10.70169,-1.14154 10.70169,-2.40992"/>
    <ellipse id="svg_469" fill="#FFD67B" ry="1.0147" rx="0.69492" cy="27.64581" cx="736.19276"/>
    <ellipse id="svg_470" fill="#FFD67B" ry="1.0147" rx="0.69492" cy="31.83147" cx="736.19276"/>
    <ellipse id="svg_471" fill="#FFD67B" ry="1.0147" rx="0.69492" cy="36.01712" cx="736.19276"/>
   </g>
  </g>
 </g>
</svg>