<svg width="1200" height="500" xmlns="http://www.w3.org/2000/svg" xml:space="preserve" version="1.1">
 <g id="Layer_1">
  <title>Layer 1</title>
  <g filter="url(#svg_610_blur)" id="svg_610">
   <path id="svg_543" fill="#AEC9D3" d="m294.86912,148.98971c0.85932,3.46347 3.72373,5.88791 6.87458,4.84886l0,0c2.86441,-1.03904 4.86949,-4.50252 4.01017,-8.31234l-13.17627,-60.61079c-0.85932,-3.46347 -3.72373,-5.88791 -6.87458,-4.84886l0,0c-2.86441,1.03904 -4.86949,4.50252 -4.01017,8.31234l13.17627,60.61079z"/>
   <path id="svg_544" fill="#8DAAB2" d="m294.86912,148.98971c0.85932,3.46347 3.72373,5.88791 6.87458,4.84886l0,0c2.86441,-1.03904 4.86949,-4.50252 4.01017,-8.31234l-13.17627,-60.61079c-0.85932,-3.46347 -3.72373,-5.88791 -6.87458,-4.84886l0,0"/>
   <path id="svg_545" fill="#EA2D83" d="m269.08946,152.45318c0,5.88791 4.01017,12.12216 8.87966,12.12216l26.92542,0c4.86949,0 6.01525,-6.23425 6.01525,-12.12216l0,0c0,-5.88791 -4.01017,-12.12216 -8.87966,-12.12216l-26.92542,0c-4.86949,0 -6.01525,6.23425 -6.01525,12.12216l0,0z"/>
   <path id="svg_546" fill="#A0007A" d="m269.08946,152.79953l0,0c0,5.88791 4.01017,11.77581 8.87966,11.77581l26.92542,0c4.86949,0 6.01525,-5.54156 6.01525,-11.77581l0,0c0,-5.88791 -3.43729,-12.46851 -8.87966,-12.46851"/>
   <path id="svg_547" fill="#FFFB76" d="m272.24031,152.79953c0,1.38539 1.71864,2.77078 2.86441,2.77078l0,0c1.14576,0 2.86441,-1.38539 2.86441,-2.77078l0,-4.15617c0,-1.38539 -1.71864,-2.77078 -2.86441,-2.77078l0,0c-1.14576,0 -2.86441,1.38539 -2.86441,2.77078l0,4.15617z"/>
   <g id="svg_550">
    <circle id="svg_548" fill="#00233F" r="17.78042" cy="85.95448" cx="294.29624"/>
    <path id="svg_549" fill="#00233F" d="m302.60302,235.23021c0,1.03904 0.85932,2.07808 1.71864,2.07808l0,0c0.85932,0 1.71864,-1.03904 1.71864,-2.07808l0,0c0,-1.03904 -0.85932,-2.07808 -1.71864,-2.07808l0,0c-1.14576,0 -1.71864,0.69269 -1.71864,2.07808l0,0z"/>
   </g>
   <circle id="svg_551" fill="#095589" r="9.65224" cy="233.84482" cx="288.28098"/>
   <path id="svg_552" fill="#00233F" d="m288.28098,220.68362c-6.01525,0 -10.88475,5.88791 -10.88475,13.1612s4.86949,13.1612 10.88475,13.1612"/>
   <circle id="svg_553" fill="#38ADD6" r="4.06412" cy="233.84482" cx="288.28098"/>
   <path id="svg_554" fill="#0C86BC" d="m284.8437,229.68865c-1.71864,2.07808 -1.71864,5.54156 0,7.96599c1.71864,2.07808 4.58305,2.07808 6.58814,0"/>
   <circle id="svg_555" fill="#095589" r="9.65219" cy="233.84482" cx="255.91319"/>
   <path id="svg_556" fill="#00233F" d="m255.91319,220.68362c-6.01525,0 -10.88475,5.88791 -10.88475,13.1612s4.86949,13.1612 10.88475,13.1612"/>
   <circle id="svg_557" fill="#38ADD6" r="4.06409" cy="233.84482" cx="255.91319"/>
   <path id="svg_558" fill="#0C86BC" d="m252.76234,229.68865c-1.71864,2.07808 -1.71864,5.54156 0,7.96599c1.71864,2.07808 4.58305,2.07808 6.58814,0"/>
   <path id="svg_559" fill="#00233F" d="m312.342,174.27307c0,12.12216 8.02034,21.47354 17.75932,21.47354l1.4322,0c10.02542,0 17.75932,-9.69773 17.75932,-21.47354l0,-36.71282c0,-12.12216 -8.02034,-21.47354 -17.75932,-21.47354l-1.4322,0c-10.02542,0 -17.75932,9.69773 -17.75932,21.47354l0,36.71282z"/>
   <path id="svg_560" fill="#095589" d="m332.39285,116.08671l0,0c-10.02542,0 -17.18644,9.69773 -17.18644,21.47354l0,36.36648c0,12.12216 7.7339,21.47354 17.47288,21.47354l0,0"/>
   <g id="svg_563">
    <path id="svg_561" fill="#EA2D83" d="m246.46065,216.52745l0,-4.84886c0,-21.81989 14.03559,-40.1763 32.08136,-40.1763l95.09831,0c18.04576,0 21.76949,18.35641 21.76949,40.1763l0,4.84886l-148.94915,0z"/>
    <path id="svg_562" fill="#EA2D83" d="m285.13014,97.0376c0,31.17127 21.48305,38.79091 48.12203,38.79091c49.55424,0 48.12203,-7.96599 48.12203,-38.79091c0,-58.87906 39.52881,-63.03523 -48.12203,-63.03523c-49.55424,-0.34635 -48.12203,31.86396 -48.12203,63.03523z"/>
   </g>
   <g id="svg_566">
    <path id="svg_564" fill="#A0007A" d="m381.37421,97.0376c0,25.97605 0.85932,35.67378 -27.78475,38.09821c-14.89492,-2.42443 -14.89492,-10.73677 -14.89492,-35.32743c0,-29.78588 0,-61.64984 26.63898,-61.64984c8.59322,0 15.75424,0 22.05593,0c8.87966,7.2733 -6.01525,22.85893 -6.01525,58.87906z"/>
    <path id="svg_565" fill="#A0007A" d="m336.11658,171.50229l37.52373,0c18.04576,0 21.76949,18.35641 21.76949,40.1763l0,4.84886l-91.66102,0l0,-4.84886c0,-21.81989 14.32203,-40.1763 32.3678,-40.1763z"/>
   </g>
   <path id="svg_567" fill="#AEC9D3" d="m235.00302,220.33727c0,3.46347 2.29153,6.5806 5.44237,6.5806l155.25085,0c2.86441,0 5.44237,-2.77078 5.44237,-6.5806l0,-0.69269c0,-3.46347 -2.29153,-6.5806 -5.44237,-6.5806l-155.25085,0c-2.86441,0 -5.44237,2.77078 -5.44237,6.5806l0,0.69269l0,0z"/>
   <path id="svg_568" fill="#8DAAB2" d="m235.00302,227.26422c0,3.46347 2.29153,6.5806 5.44237,6.5806l155.25085,0c2.86441,0 5.44237,-2.77078 5.44237,-6.5806l0,-0.69269c0,-3.46347 -2.29153,-6.5806 -5.44237,-6.5806l-155.25085,0c-2.86441,0 -5.44237,2.77078 -5.44237,6.5806l0,0.69269l0,0z"/>
   <circle id="svg_569" fill="#095589" r="9.65222" cy="233.84482" cx="384.81149"/>
   <path id="svg_570" fill="#00233F" d="m384.81149,220.68362c-6.01525,0 -10.88475,5.88791 -10.88475,13.1612s4.86949,13.1612 10.88475,13.1612"/>
   <circle id="svg_571" fill="#38ADD6" r="4.06412" cy="233.84482" cx="384.81149"/>
   <path id="svg_572" fill="#0C86BC" d="m381.66065,229.68865c-1.71864,2.07808 -1.71864,5.54156 0,7.96599c1.71864,2.07808 4.58305,2.07808 6.58814,0"/>
   <circle id="svg_573" fill="#095589" r="9.65225" cy="233.84482" cx="352.73014"/>
   <path id="svg_574" fill="#00233F" d="m352.73014,220.68362c-6.01525,0 -10.88475,5.88791 -10.88475,13.1612s4.86949,13.1612 10.88475,13.1612"/>
   <circle id="svg_575" fill="#38ADD6" r="4.06412" cy="233.84482" cx="352.73014"/>
   <path id="svg_576" fill="#0C86BC" d="m349.29285,229.68865c-1.71864,2.07808 -1.71864,5.54156 0,7.96599c1.71864,2.07808 4.58305,2.07808 6.58814,0"/>
   <circle id="svg_577" fill="#095589" r="9.65225" cy="233.84482" cx="320.36234"/>
   <path id="svg_578" fill="#00233F" d="m320.36234,220.68362c-6.01525,0 -10.88475,5.88791 -10.88475,13.1612s4.86949,13.1612 10.88475,13.1612"/>
   <circle id="svg_579" fill="#38ADD6" r="4.06412" cy="233.84482" cx="320.36234"/>
   <g id="svg_583">
    <path id="svg_580" fill="#0C86BC" d="m317.21149,229.68865c-1.71864,2.07808 -1.71864,5.54156 0,7.96599c1.71864,2.07808 4.58305,2.07808 6.58814,0"/>
    <path id="svg_581" fill="#0C86BC" d="m367.33861,235.23021c0,1.03904 0.85932,2.07808 1.71864,2.07808l0,0c0.85932,0 1.71864,-1.03904 1.71864,-2.07808l0,0c0,-1.03904 -0.85932,-2.07808 -1.71864,-2.07808l0,0c-0.85932,0 -1.71864,0.69269 -1.71864,2.07808l0,0z"/>
    <path id="svg_582" fill="#0C86BC" d="m334.97082,235.23021c0,1.03904 0.85932,2.07808 1.71864,2.07808l0,0c0.85932,0 1.71864,-1.03904 1.71864,-2.07808l0,0c0,-1.03904 -0.85932,-2.07808 -1.71864,-2.07808l0,0c-0.85932,0 -1.71864,0.69269 -1.71864,2.07808l0,0z"/>
   </g>
   <circle id="svg_584" fill="#095589" r="17.78042" cy="85.95448" cx="369.3437"/>
   <path id="svg_585" fill="#00233F" d="m349.29285,85.95448c0,13.50755 8.87966,24.24432 20.05085,24.24432s20.05085,-10.73677 20.05085,-24.24432"/>
   <ellipse id="svg_586" fill="#EA2D83" ry="14.54659" rx="8.02034" cy="85.95448" cx="378.5098"/>
   <path id="svg_587" fill="#A0007A" d="m378.5098,100.50107c4.29661,0 8.02034,-6.5806 8.02034,-14.54659s-3.43729,-14.54659 -8.02034,-14.54659"/>
   <path id="svg_588" fill="#AEC9D3" d="m387.96234,148.98971c0.85932,3.46347 3.72373,5.88791 6.87458,4.84886l0,0c2.86441,-1.03904 4.86949,-4.50252 4.01017,-8.31234l-13.17627,-60.61079c-0.85932,-3.46347 -3.72373,-5.88791 -6.87458,-4.84886l0,0c-2.86441,1.03904 -4.86949,4.50252 -4.01017,8.31234l13.17627,60.61079z"/>
   <path id="svg_589" fill="#8DAAB2" d="m387.96234,148.98971c0.85932,3.46347 3.72373,5.88791 6.87458,4.84886l0,0c2.86441,-1.03904 4.86949,-4.50252 4.01017,-8.31234l-13.17627,-60.61079c-0.85932,-3.46347 -3.72373,-5.88791 -6.87458,-4.84886l0,0"/>
   <path id="svg_590" fill="#EA2D83" d="m362.18268,152.45318c0,5.88791 4.01017,12.12216 8.87966,12.12216l26.92542,0c4.86949,0 6.01525,-6.23425 6.01525,-12.12216l0,0c0,-5.88791 -4.01017,-12.12216 -8.87966,-12.12216l-26.92542,0c-4.86949,0 -6.01525,6.23425 -6.01525,12.12216l0,0z"/>
   <path id="svg_591" fill="#A0007A" d="m362.18268,152.79953l0,0c0,5.88791 4.01017,11.77581 8.87966,11.77581l26.92542,0c4.86949,0 6.01525,-5.54156 6.01525,-11.77581l0,0c0,-5.88791 -3.43729,-12.46851 -8.87966,-12.46851"/>
   <path id="svg_592" fill="#FFFB76" d="m366.76573,152.79953c0,1.38539 0.28644,2.77078 1.4322,2.77078l0,0c1.14576,0 1.4322,-1.38539 1.4322,-2.77078l0,-4.15617c0,-1.38539 -0.28644,-2.77078 -1.4322,-2.77078l0,0c-1.14576,0 -1.4322,1.38539 -1.4322,2.77078l0,4.15617z"/>
   <g id="svg_595">
    <path id="svg_593" fill="#8DAAB2" d="m353.8759,80.75927c0,0.69269 0.28644,1.03904 0.85932,1.03904l5.72881,0c0.57288,0 0.85932,-0.34635 0.85932,-1.03904l0,0c0,-0.69269 -0.28644,-1.03904 -0.85932,-1.03904l-5.72881,0c-0.28644,0 -0.85932,0.34635 -0.85932,1.03904l0,0z"/>
    <path id="svg_594" fill="#8DAAB2" d="m356.45387,74.17867c0,0.69269 0.28644,1.03904 0.85932,1.03904l5.72881,0c0.57288,0 0.85932,-0.34635 0.85932,-1.03904l0,0c0,-0.69269 -0.28644,-1.03904 -0.85932,-1.03904l-5.72881,0c-0.57288,0 -0.85932,0.34635 -0.85932,1.03904l0,0z"/>
   </g>
   <g id="svg_599">
    <path id="svg_596" fill="#AEC9D3" d="m366.76573,187.43427c0,0.69269 0.57288,1.38539 1.14576,1.38539l12.03051,0c0.57288,0 1.14576,-0.69269 1.14576,-1.38539l0,-0.69269c0,-0.69269 -0.57288,-1.38539 -1.14576,-1.38539l-12.03051,0c-0.57288,0 -1.14576,0.69269 -1.14576,1.38539l0,0.69269z"/>
    <path id="svg_597" fill="#AEC9D3" d="m366.76573,194.36122c0,0.69269 0.57288,1.38539 1.14576,1.38539l12.03051,0c0.57288,0 1.14576,-0.69269 1.14576,-1.38539l0,-0.69269c0,-0.69269 -0.57288,-1.38539 -1.14576,-1.38539l-12.03051,0c-0.57288,0 -1.14576,0.69269 -1.14576,1.38539l0,0.69269z"/>
    <path id="svg_598" fill="#AEC9D3" d="m366.76573,201.28817c0,0.69269 0.57288,1.38539 1.14576,1.38539l12.03051,0c0.57288,0 1.14576,-0.69269 1.14576,-1.38539l0,-0.69269c0,-0.69269 -0.57288,-1.38539 -1.14576,-1.38539l-12.03051,0c-0.57288,0 -1.14576,0.69269 -1.14576,1.38539l0,0.69269z"/>
   </g>
   <g id="svg_603">
    <path id="svg_600" fill="#8DAAB2" d="m346.71488,146.56528c0.57288,0 1.14576,-0.69269 1.14576,-1.38539l0,0c0,-0.69269 -0.57288,-1.38539 -1.14576,-1.38539l-30.36271,0c-0.57288,0 -1.14576,0.69269 -1.14576,1.38539l0,0c0,0.69269 0.57288,1.38539 1.14576,1.38539"/>
    <path id="svg_601" fill="#8DAAB2" d="m315.20641,156.26301c0,0.69269 0.57288,1.38539 1.14576,1.38539l29.21695,0c0.57288,0 1.14576,-0.69269 1.14576,-1.38539l0,-0.69269c0,-0.69269 -0.57288,-1.38539 -1.14576,-1.38539l-29.21695,0c-0.57288,0 -1.14576,0.69269 -1.14576,1.38539l0,0.69269z"/>
    <path id="svg_602" fill="#8DAAB2" d="m315.20641,166.65343c0,0.69269 0.57288,1.38539 1.14576,1.38539l29.21695,0c0.57288,0 1.14576,-0.69269 1.14576,-1.38539l0,-0.69269c0,-0.69269 -0.57288,-1.38539 -1.14576,-1.38539l-29.21695,0c-0.57288,0 -1.14576,0.69269 -1.14576,1.38539l0,0.69269z"/>
   </g>
   <ellipse id="svg_604" fill="#FFFB76" ry="6.5806" rx="22.05593" cy="64.1346" cx="310.62336"/>
   <g id="svg_609">
    <path id="svg_605" fill="#FFD67B" d="m288.56743,64.1346c0,3.80982 9.73898,6.5806 22.05593,6.5806s22.05593,-3.11713 22.05593,-6.5806"/>
    <ellipse id="svg_606" fill="#FFD67B" ry="2.77078" rx="1.4322" cy="84.91544" cx="305.46743"/>
    <ellipse id="svg_607" fill="#FFD67B" ry="2.77078" rx="1.4322" cy="96.34491" cx="305.46743"/>
    <ellipse id="svg_608" fill="#FFD67B" ry="2.77078" rx="1.4322" cy="107.77437" cx="305.46743"/>
   </g>
  </g>
  <g id="svg_202">
   <path id="svg_1" fill="#AEC9D3" d="m103.18942,364.77997c1.42373,4.70763 6.16949,8.00298 11.38983,6.59069l0,0c4.74576,-1.41229 8.0678,-6.11993 6.64407,-11.29832l-21.83051,-82.38361c-1.42373,-4.70763 -6.16949,-8.00298 -11.38983,-6.59069l0,0c-4.74576,1.41229 -8.0678,6.11993 -6.64407,11.29832l21.83051,82.38361z"/>
   <path id="svg_2" fill="#8DAAB2" d="m103.18942,364.77997c1.42373,4.70763 6.16949,8.00298 11.38983,6.59069l0,0c4.74576,-1.41229 8.0678,-6.11993 6.64407,-11.29832l-21.83051,-82.38361c-1.42373,-4.70763 -6.16949,-8.00298 -11.38983,-6.59069l0,0"/>
   <path id="svg_3" fill="#EA2D83" d="m60.47756,369.4876c0,8.00298 6.64407,16.47672 14.71186,16.47672l44.61017,0c8.0678,0 9.9661,-8.47374 9.9661,-16.47672l0,0c0,-8.00298 -6.64407,-16.47672 -14.71186,-16.47672l-44.61017,0c-8.0678,0 -9.9661,8.47374 -9.9661,16.47672l0,0z"/>
   <path id="svg_4" fill="#A0007A" d="m60.47756,369.95836l0,0c0,8.00298 6.64407,16.00596 14.71186,16.00596l44.61017,0c8.0678,0 9.9661,-7.53222 9.9661,-16.00596l0,0c0,-8.00298 -5.69492,-16.94749 -14.71186,-16.94749"/>
   <path id="svg_5" fill="#FFFB76" d="m65.6979,369.95836c0,1.88305 2.84746,3.76611 4.74576,3.76611l0,0c1.89831,0 4.74576,-1.88305 4.74576,-3.76611l0,-5.64916c0,-1.88305 -2.84746,-3.76611 -4.74576,-3.76611l0,0c-1.89831,0 -4.74576,1.88305 -4.74576,3.76611l0,5.64916z"/>
   <g id="svg_6">
    <circle id="svg_140" fill="#00233F" r="29.45872" cy="279.10101" cx="102.24027"/>
    <path id="svg_141" fill="#00233F" d="m116.00298,482.00007c0,1.41229 1.42373,2.82458 2.84746,2.82458l0,0c1.42373,0 2.84746,-1.41229 2.84746,-2.82458l0,0c0,-1.41229 -1.42373,-2.82458 -2.84746,-2.82458l0,0c-1.89831,0 -2.84746,0.94153 -2.84746,2.82458l0,0z"/>
   </g>
   <circle id="svg_9" fill="#095589" r="15.99187" cy="480.11702" cx="92.27417"/>
   <path id="svg_10" fill="#00233F" d="m92.27417,462.22801c-9.9661,0 -18.0339,8.00298 -18.0339,17.88901s8.0678,17.88901 18.0339,17.88901"/>
   <circle id="svg_11" fill="#38ADD6" r="6.73341" cy="480.11702" cx="92.27417"/>
   <path id="svg_12" fill="#0C86BC" d="m86.57925,474.46786c-2.84746,2.82458 -2.84746,7.53222 0,10.82756c2.84746,2.82458 7.59322,2.82458 10.91525,0"/>
   <circle id="svg_13" fill="#095589" r="15.99187" cy="480.11702" cx="38.64705"/>
   <path id="svg_14" fill="#00233F" d="m38.64705,462.22801c-9.9661,0 -18.0339,8.00298 -18.0339,17.88901s8.0678,17.88901 18.0339,17.88901"/>
   <circle id="svg_15" fill="#38ADD6" r="6.73341" cy="480.11702" cx="38.64705"/>
   <path id="svg_16" fill="#0C86BC" d="m33.42671,474.46786c-2.84746,2.82458 -2.84746,7.53222 0,10.82756c2.84746,2.82458 7.59322,2.82458 10.91525,0"/>
   <path id="svg_17" fill="#00233F" d="m132.13857,399.1457c0,16.47672 13.28814,29.18734 29.42373,29.18734l2.37288,0c16.61017,0 29.42373,-13.18138 29.42373,-29.18734l0,-49.90093c0,-16.47672 -13.28814,-29.18734 -29.42373,-29.18734l-2.37288,0c-16.61017,0 -29.42373,13.18138 -29.42373,29.18734l0,49.90093z"/>
   <path id="svg_18" fill="#095589" d="m165.35891,320.05743l0,0c-16.61017,0 -28.47458,13.18138 -28.47458,29.18734l0,49.43017c0,16.47672 12.81356,29.18734 28.94915,29.18734l0,0"/>
   <g id="svg_19">
    <path id="svg_153" fill="#EA2D83" d="m22.98603,456.57884l0,-6.59069c0,-29.6581 23.25424,-54.60856 53.15254,-54.60856l157.55933,0c29.89831,0 36.0678,24.95046 36.0678,54.60856l0,6.59069l-246.77967,0z"/>
    <path id="svg_154" fill="#EA2D83" d="m87.05383,294.16544c0,42.36871 35.59322,52.72551 79.72882,52.72551c82.1017,0 79.72882,-10.82756 79.72882,-52.72551c0,-80.02979 65.49153,-85.67895 -79.72882,-85.67895c-82.1017,-0.47076 -79.72882,43.31024 -79.72882,85.67895z"/>
   </g>
   <g id="svg_22">
    <path id="svg_156" fill="#A0007A" d="m246.51146,294.16544c0,35.30726 1.42373,48.48864 -46.0339,51.78398c-24.67797,-3.29534 -24.67797,-14.59367 -24.67797,-48.01788c0,-40.48566 0,-83.7959 44.13559,-83.7959c14.23729,0 26.1017,0 36.54237,0c14.71186,9.88603 -9.9661,31.07039 -9.9661,80.02979z"/>
    <path id="svg_157" fill="#A0007A" d="m171.52841,395.37959l62.16949,0c29.89831,0 36.0678,24.95046 36.0678,54.60856l0,6.59069l-151.86441,0l0,-6.59069c0,-29.6581 23.72881,-54.60856 53.62712,-54.60856z"/>
   </g>
   <path id="svg_25" fill="#AEC9D3" d="m4.00298,461.75724c0,4.70763 3.79661,8.94451 9.01695,8.94451l257.22034,0c4.74576,0 9.01695,-3.76611 9.01695,-8.94451l0,-0.94153c0,-4.70763 -3.79661,-8.94451 -9.01695,-8.94451l-257.22034,0c-4.74576,0 -9.01695,3.76611 -9.01695,8.94451l0,0.94153l0,0z"/>
   <path id="svg_26" fill="#8DAAB2" d="m4.00298,471.17251c0,4.70763 3.79661,8.94451 9.01695,8.94451l257.22034,0c4.74576,0 9.01695,-3.76611 9.01695,-8.94451l0,-0.94153c0,-4.70763 -3.79661,-8.94451 -9.01695,-8.94451l-257.22034,0c-4.74576,0 -9.01695,3.76611 -9.01695,8.94451l0,0.94153l0,0z"/>
   <circle id="svg_27" fill="#095589" r="15.99187" cy="480.11702" cx="252.20637"/>
   <path id="svg_28" fill="#00233F" d="m252.20637,462.22801c-9.9661,0 -18.0339,8.00298 -18.0339,17.88901s8.0678,17.88901 18.0339,17.88901"/>
   <circle id="svg_29" fill="#38ADD6" r="6.73341" cy="480.11702" cx="252.20637"/>
   <path id="svg_30" fill="#0C86BC" d="m246.98604,474.46786c-2.84746,2.82458 -2.84746,7.53222 0,10.82756c2.84746,2.82458 7.59322,2.82458 10.91525,0"/>
   <circle id="svg_31" fill="#095589" r="15.99187" cy="480.11702" cx="199.05383"/>
   <path id="svg_32" fill="#00233F" d="m199.05383,462.22801c-9.9661,0 -18.0339,8.00298 -18.0339,17.88901s8.0678,17.88901 18.0339,17.88901"/>
   <circle id="svg_33" fill="#38ADD6" r="6.73341" cy="480.11702" cx="199.05383"/>
   <path id="svg_34" fill="#0C86BC" d="m193.35892,474.46786c-2.84746,2.82458 -2.84746,7.53222 0,10.82756c2.84746,2.82458 7.59322,2.82458 10.91525,0"/>
   <circle id="svg_35" fill="#095589" r="15.99187" cy="480.11702" cx="145.42671"/>
   <path id="svg_36" fill="#00233F" d="m145.42671,462.22801c-9.9661,0 -18.0339,8.00298 -18.0339,17.88901s8.0678,17.88901 18.0339,17.88901"/>
   <circle id="svg_37" fill="#38ADD6" r="6.73341" cy="480.11702" cx="145.42671"/>
   <g id="svg_38">
    <path id="svg_172" fill="#0C86BC" d="m140.20637,474.46786c-2.84746,2.82458 -2.84746,7.53222 0,10.82756c2.84746,2.82458 7.59322,2.82458 10.91525,0"/>
    <path id="svg_173" fill="#0C86BC" d="m223.25722,482.00007c0,1.41229 1.42373,2.82458 2.84746,2.82458l0,0c1.42373,0 2.84746,-1.41229 2.84746,-2.82458l0,0c0,-1.41229 -1.42373,-2.82458 -2.84746,-2.82458l0,0c-1.42373,0 -2.84746,0.94153 -2.84746,2.82458l0,0z"/>
    <path id="svg_174" fill="#0C86BC" d="m169.6301,482.00007c0,1.41229 1.42373,2.82458 2.84746,2.82458l0,0c1.42373,0 2.84746,-1.41229 2.84746,-2.82458l0,0c0,-1.41229 -1.42373,-2.82458 -2.84746,-2.82458l0,0c-1.42373,0 -2.84746,0.94153 -2.84746,2.82458l0,0z"/>
   </g>
   <circle id="svg_42" fill="#095589" r="29.45872" cy="279.10101" cx="226.57926"/>
   <path id="svg_43" fill="#00233F" d="m193.35892,279.10101c0,18.35978 14.71186,32.95344 33.22034,32.95344s33.22034,-14.59367 33.22034,-32.95344"/>
   <ellipse id="svg_44" fill="#EA2D83" ry="19.77207" rx="13.28814" cy="279.10101" cx="241.7657"/>
   <path id="svg_45" fill="#A0007A" d="m241.7657,298.87308c7.11864,0 13.28814,-8.94451 13.28814,-19.77207s-5.69492,-19.77207 -13.28814,-19.77207"/>
   <path id="svg_46" fill="#AEC9D3" d="m257.42671,364.77997c1.42373,4.70763 6.16949,8.00298 11.38983,6.59069l0,0c4.74576,-1.41229 8.0678,-6.11993 6.64407,-11.29832l-21.83051,-82.38361c-1.42373,-4.70763 -6.16949,-8.00298 -11.38983,-6.59069l0,0c-4.74576,1.41229 -8.0678,6.11993 -6.64407,11.29832l21.83051,82.38361z"/>
   <path id="svg_47" fill="#8DAAB2" d="m257.42671,364.77997c1.42373,4.70763 6.16949,8.00298 11.38983,6.59069l0,0c4.74576,-1.41229 8.0678,-6.11993 6.64407,-11.29832l-21.83051,-82.38361c-1.42373,-4.70763 -6.16949,-8.00298 -11.38983,-6.59069l0,0"/>
   <path id="svg_48" fill="#EA2D83" d="m214.71485,369.4876c0,8.00298 6.64407,16.47672 14.71186,16.47672l44.61017,0c8.0678,0 9.9661,-8.47374 9.9661,-16.47672l0,0c0,-8.00298 -6.64407,-16.47672 -14.71186,-16.47672l-44.61017,0c-8.0678,0 -9.9661,8.47374 -9.9661,16.47672l0,0z"/>
   <path id="svg_49" fill="#A0007A" d="m214.71485,369.95836l0,0c0,8.00298 6.64407,16.00596 14.71186,16.00596l44.61017,0c8.0678,0 9.9661,-7.53222 9.9661,-16.00596l0,0c0,-8.00298 -5.69492,-16.94749 -14.71186,-16.94749"/>
   <path id="svg_50" fill="#FFFB76" d="m222.30807,369.95836c0,1.88305 0.47458,3.76611 2.37288,3.76611l0,0c1.89831,0 2.37288,-1.88305 2.37288,-3.76611l0,-5.64916c0,-1.88305 -0.47458,-3.76611 -2.37288,-3.76611l0,0c-1.89831,0 -2.37288,1.88305 -2.37288,3.76611l0,5.64916z"/>
   <g id="svg_51">
    <path id="svg_185" fill="#8DAAB2" d="m200.95214,272.03956c0,0.94153 0.47458,1.41229 1.42373,1.41229l9.49153,0c0.94915,0 1.42373,-0.47076 1.42373,-1.41229l0,0c0,-0.94153 -0.47458,-1.41229 -1.42373,-1.41229l-9.49153,0c-0.47458,0 -1.42373,0.47076 -1.42373,1.41229l0,0z"/>
    <path id="svg_186" fill="#8DAAB2" d="m205.22332,263.09505c0,0.94153 0.47458,1.41229 1.42373,1.41229l9.49153,0c0.94915,0 1.42373,-0.47076 1.42373,-1.41229l0,0c0,-0.94153 -0.47458,-1.41229 -1.42373,-1.41229l-9.49153,0c-0.94915,0 -1.42373,0.47076 -1.42373,1.41229l0,0z"/>
   </g>
   <g id="svg_54">
    <path id="svg_188" fill="#AEC9D3" d="m222.30807,417.03471c0,0.94153 0.94915,1.88305 1.89831,1.88305l19.9322,0c0.94915,0 1.89831,-0.94153 1.89831,-1.88305l0,-0.94153c0,-0.94153 -0.94915,-1.88305 -1.89831,-1.88305l-19.9322,0c-0.94915,0 -1.89831,0.94153 -1.89831,1.88305l0,0.94153z"/>
    <path id="svg_189" fill="#AEC9D3" d="m222.30807,426.44998c0,0.94153 0.94915,1.88305 1.89831,1.88305l19.9322,0c0.94915,0 1.89831,-0.94153 1.89831,-1.88305l0,-0.94153c0,-0.94153 -0.94915,-1.88305 -1.89831,-1.88305l-19.9322,0c-0.94915,0 -1.89831,0.94153 -1.89831,1.88305l0,0.94153z"/>
    <path id="svg_190" fill="#AEC9D3" d="m222.30807,435.86525c0,0.94153 0.94915,1.88305 1.89831,1.88305l19.9322,0c0.94915,0 1.89831,-0.94153 1.89831,-1.88305l0,-0.94153c0,-0.94153 -0.94915,-1.88305 -1.89831,-1.88305l-19.9322,0c-0.94915,0 -1.89831,0.94153 -1.89831,1.88305l0,0.94153z"/>
   </g>
   <g id="svg_58">
    <path id="svg_192" fill="#8DAAB2" d="m189.08773,361.48462c0.94915,0 1.89831,-0.94153 1.89831,-1.88305l0,0c0,-0.94153 -0.94915,-1.88305 -1.89831,-1.88305l-50.30509,0c-0.94915,0 -1.89831,0.94153 -1.89831,1.88305l0,0c0,0.94153 0.94915,1.88305 1.89831,1.88305"/>
    <path id="svg_193" fill="#8DAAB2" d="m136.88434,374.666c0,0.94153 0.94915,1.88305 1.89831,1.88305l48.40678,0c0.94915,0 1.89831,-0.94153 1.89831,-1.88305l0,-0.94153c0,-0.94153 -0.94915,-1.88305 -1.89831,-1.88305l-48.40678,0c-0.94915,0 -1.89831,0.94153 -1.89831,1.88305l0,0.94153z"/>
    <path id="svg_194" fill="#8DAAB2" d="m136.88434,388.7889c0,0.94153 0.94915,1.88305 1.89831,1.88305l48.40678,0c0.94915,0 1.89831,-0.94153 1.89831,-1.88305l0,-0.94153c0,-0.94153 -0.94915,-1.88305 -1.89831,-1.88305l-48.40678,0c-0.94915,0 -1.89831,0.94153 -1.89831,1.88305l0,0.94153z"/>
   </g>
   <ellipse id="svg_62" fill="#FFFB76" ry="8.94451" rx="36.54237" cy="249.44291" cx="129.29112"/>
   <g id="svg_63">
    <path id="svg_197" fill="#FFD67B" d="m92.74874,249.44291c0,5.1784 16.13559,8.94451 36.54237,8.94451s36.54237,-4.23687 36.54237,-8.94451"/>
    <ellipse id="svg_198" fill="#FFD67B" ry="3.76611" rx="2.37288" cy="277.68872" cx="120.74874"/>
    <ellipse id="svg_199" fill="#FFD67B" ry="3.76611" rx="2.37288" cy="293.22392" cx="120.74874"/>
    <ellipse id="svg_200" fill="#FFD67B" ry="3.76611" rx="2.37288" cy="308.75911" cx="120.74874"/>
   </g>
  </g>
  <g filter="url(#svg_405_blur)" opacity="0.5" id="svg_405">
   <path stroke-dasharray="2,2" id="svg_338" fill="#AEC9D3" d="m73.18435,60.70083c-0.44237,1.35731 -1.91695,2.30742 -3.53898,1.90023l0,0c-1.47458,-0.40719 -2.50678,-1.7645 -2.06441,-3.25754l6.78305,-23.75288c0.44237,-1.35731 1.91695,-2.30742 3.53898,-1.90023l0,0c1.47458,0.40719 2.50678,1.7645 2.06441,3.25754l-6.78305,23.75288z"/>
   <path stroke-dasharray="2,2" id="svg_339" fill="#8DAAB2" d="m73.18435,60.70083c-0.44237,1.35731 -1.91695,2.30742 -3.53898,1.90023l0,0c-1.47458,-0.40719 -2.50678,-1.7645 -2.06441,-3.25754l6.78305,-23.75288c0.44237,-1.35731 1.91695,-2.30742 3.53898,-1.90023l0,0"/>
   <path stroke-dasharray="2,2" id="svg_340" fill="#EA2D83" d="m86.45554,62.05814c0,2.30742 -2.06441,4.75058 -4.57119,4.75058l-13.86102,0c-2.50678,0 -3.09661,-2.44315 -3.09661,-4.75058l0,0c0,-2.30742 2.06441,-4.75058 4.57119,-4.75058l13.86102,0c2.50678,0 3.09661,2.44315 3.09661,4.75058l0,0z"/>
   <path stroke-dasharray="2,2" id="svg_341" fill="#A0007A" d="m86.45554,62.19387l0,0c0,2.30742 -2.06441,4.61484 -4.57119,4.61484l-13.86102,0c-2.50678,0 -3.09661,-2.17169 -3.09661,-4.61484l0,0c0,-2.30742 1.76949,-4.88631 4.57119,-4.88631"/>
   <path stroke-dasharray="2,2" id="svg_342" fill="#FFFB76" d="m84.83351,62.19387c0,0.54292 -0.88475,1.08585 -1.47458,1.08585l0,0c-0.58983,0 -1.47458,-0.54292 -1.47458,-1.08585l0,-1.62877c0,-0.54292 0.88475,-1.08585 1.47458,-1.08585l0,0c0.58983,0 1.47458,0.54292 1.47458,1.08585l0,1.62877z"/>
   <g id="svg_345">
    <circle stroke-dasharray="2,2" id="svg_343" fill="#00233F" r="9.15324" cy="35.99784" cx="73.47927"/>
    <path stroke-dasharray="2,2" id="svg_344" fill="#00233F" d="m69.203,94.49778c0,0.40719 -0.44237,0.81438 -0.88475,0.81438l0,0c-0.44237,0 -0.88475,-0.40719 -0.88475,-0.81438l0,0c0,-0.40719 0.44237,-0.81438 0.88475,-0.81438l0,0c0.58983,0 0.88475,0.27146 0.88475,0.81438l0,0z"/>
   </g>
   <circle stroke-dasharray="2,2" id="svg_346" fill="#095589" r="4.96889" cy="93.95486" cx="76.57588"/>
   <path stroke-dasharray="2,2" id="svg_347" fill="#00233F" d="m76.57588,88.79709c3.09661,0 5.60339,2.30742 5.60339,5.15777s-2.50678,5.15777 -5.60339,5.15777"/>
   <circle stroke-dasharray="2,2" id="svg_348" fill="#38ADD6" r="2.09217" cy="93.95486" cx="76.57588"/>
   <path stroke-dasharray="2,2" id="svg_349" fill="#0C86BC" d="m78.34537,92.32609c0.88475,0.81438 0.88475,2.17169 0,3.12181c-0.88475,0.81438 -2.35932,0.81438 -3.39153,0"/>
   <circle stroke-dasharray="2,2" id="svg_350" fill="#095589" r="4.96889" cy="93.95486" cx="93.23859"/>
   <path stroke-dasharray="2,2" id="svg_351" fill="#00233F" d="m93.23859,88.79709c3.09661,0 5.60339,2.30742 5.60339,5.15777s-2.50678,5.15777 -5.60339,5.15777"/>
   <circle stroke-dasharray="2,2" id="svg_352" fill="#38ADD6" r="2.09216" cy="93.95486" cx="93.23859"/>
   <path stroke-dasharray="2,2" id="svg_353" fill="#0C86BC" d="m94.86062,92.32609c0.88475,0.81438 0.88475,2.17169 0,3.12181c-0.88475,0.81438 -2.35932,0.81438 -3.39153,0"/>
   <path stroke-dasharray="2,2" id="svg_354" fill="#00233F" d="m64.18944,70.60917c0,4.75058 -4.12881,8.41531 -9.14237,8.41531l-0.73729,0c-5.16102,0 -9.14237,-3.80046 -9.14237,-8.41531l0,-14.38746c0,-4.75058 4.12881,-8.41531 9.14237,-8.41531l0.73729,0c5.16102,0 9.14237,3.80046 9.14237,8.41531l0,14.38746z"/>
   <path stroke-dasharray="2,2" id="svg_355" fill="#095589" d="m53.86741,47.80641l0,0c5.16102,0 8.84746,3.80046 8.84746,8.41531l0,14.25173c0,4.75058 -3.98136,8.41531 -8.99491,8.41531l0,0"/>
   <g id="svg_358">
    <path stroke-dasharray="2,2" id="svg_356" fill="#EA2D83" d="m98.10469,87.16832l0,-1.90023c0,-8.55104 -7.22542,-15.74476 -16.51525,-15.74476l-48.95593,0c-9.28983,0 -11.20678,7.19373 -11.20678,15.74476l0,1.90023l76.67796,0z"/>
    <path stroke-dasharray="2,2" id="svg_357" fill="#EA2D83" d="m78.19791,40.34122c0,12.21577 -11.05932,15.20184 -24.77288,15.20184c-25.51017,0 -24.77288,-3.12181 -24.77288,-15.20184c0,-23.07422 -20.34915,-24.70299 24.77288,-24.70299c25.51017,-0.13573 24.77288,12.48723 24.77288,24.70299z"/>
   </g>
   <g id="svg_361">
    <path stroke-dasharray="2,2" id="svg_359" fill="#A0007A" d="m28.65215,40.34122c0,10.1798 -0.44237,13.98027 14.30339,14.93038c7.6678,-0.95012 7.6678,-4.20765 7.6678,-13.84453c0,-11.67284 0,-24.16007 -13.71356,-24.16007c-4.42373,0 -8.11017,0 -11.35424,0c-4.57119,2.85035 3.09661,8.95823 3.09661,23.07422z"/>
    <path stroke-dasharray="2,2" id="svg_360" fill="#A0007A" d="m51.95046,69.52333l-19.31695,0c-9.28983,0 -11.20678,7.19373 -11.20678,15.74476l0,1.90023l47.18644,0l0,-1.90023c0,-8.55104 -7.37288,-15.74476 -16.66271,-15.74476z"/>
   </g>
   <path stroke-dasharray="2,2" id="svg_362" fill="#AEC9D3" d="m104.003,88.66136c0,1.35731 -1.17966,2.57888 -2.80169,2.57888l-79.92203,0c-1.47458,0 -2.80169,-1.08585 -2.80169,-2.57888l0,-0.27146c0,-1.35731 1.17966,-2.57888 2.80169,-2.57888l79.92203,0c1.47458,0 2.80169,1.08585 2.80169,2.57888l0,0.27146l0,0z"/>
   <path stroke-dasharray="2,2" id="svg_363" fill="#8DAAB2" d="m104.003,91.37597c0,1.35731 -1.17966,2.57888 -2.80169,2.57888l-79.92203,0c-1.47458,0 -2.80169,-1.08585 -2.80169,-2.57888l0,-0.27146c0,-1.35731 1.17966,-2.57888 2.80169,-2.57888l79.92203,0c1.47458,0 2.80169,1.08585 2.80169,2.57888l0,0.27146l0,0z"/>
   <circle stroke-dasharray="2,2" id="svg_364" fill="#095589" r="4.96889" cy="93.95486" cx="26.88266"/>
   <path stroke-dasharray="2,2" id="svg_365" fill="#00233F" d="m26.88266,88.79709c3.09661,0 5.60339,2.30742 5.60339,5.15777s-2.50678,5.15777 -5.60339,5.15777"/>
   <circle stroke-dasharray="2,2" id="svg_366" fill="#38ADD6" r="2.09216" cy="93.95486" cx="26.88266"/>
   <path stroke-dasharray="2,2" id="svg_367" fill="#0C86BC" d="m28.5047,92.32609c0.88475,0.81438 0.88475,2.17169 0,3.12181c-0.88475,0.81438 -2.35932,0.81438 -3.39153,0"/>
   <circle stroke-dasharray="2,2" id="svg_368" fill="#095589" r="4.9689" cy="93.95486" cx="43.39792"/>
   <path stroke-dasharray="2,2" id="svg_369" fill="#00233F" d="m43.39792,88.79709c3.09661,0 5.60339,2.30742 5.60339,5.15777s-2.50678,5.15777 -5.60339,5.15777"/>
   <circle stroke-dasharray="2,2" id="svg_370" fill="#38ADD6" r="2.09217" cy="93.95486" cx="43.39792"/>
   <path stroke-dasharray="2,2" id="svg_371" fill="#0C86BC" d="m45.16741,92.32609c0.88475,0.81438 0.88475,2.17169 0,3.12181c-0.88475,0.81438 -2.35932,0.81438 -3.39153,0"/>
   <circle stroke-dasharray="2,2" id="svg_372" fill="#095589" r="4.9689" cy="93.95486" cx="60.06063"/>
   <path stroke-dasharray="2,2" id="svg_373" fill="#00233F" d="m60.06063,88.79709c3.09661,0 5.60339,2.30742 5.60339,5.15777s-2.50678,5.15777 -5.60339,5.15777"/>
   <circle stroke-dasharray="2,2" id="svg_374" fill="#38ADD6" r="2.09217" cy="93.95486" cx="60.06063"/>
   <g id="svg_378">
    <path stroke-dasharray="2,2" id="svg_375" fill="#0C86BC" d="m61.68266,92.32609c0.88475,0.81438 0.88475,2.17169 0,3.12181c-0.88475,0.81438 -2.35932,0.81438 -3.39153,0"/>
    <path stroke-dasharray="2,2" id="svg_376" fill="#0C86BC" d="m35.87758,94.49778c0,0.40719 -0.44237,0.81438 -0.88475,0.81438l0,0c-0.44237,0 -0.88475,-0.40719 -0.88475,-0.81438l0,0c0,-0.40719 0.44237,-0.81438 0.88475,-0.81438l0,0c0.44237,0 0.88475,0.27146 0.88475,0.81438l0,0z"/>
    <path stroke-dasharray="2,2" id="svg_377" fill="#0C86BC" d="m52.54029,94.49778c0,0.40719 -0.44237,0.81438 -0.88475,0.81438l0,0c-0.44237,0 -0.88475,-0.40719 -0.88475,-0.81438l0,0c0,-0.40719 0.44237,-0.81438 0.88475,-0.81438l0,0c0.44237,0 0.88475,0.27146 0.88475,0.81438l0,0z"/>
   </g>
   <circle stroke-dasharray="2,2" id="svg_379" fill="#095589" r="9.15324" cy="35.99784" cx="34.84537"/>
   <path stroke-dasharray="2,2" id="svg_380" fill="#00233F" d="m45.16741,35.99784c0,5.2935 -4.57119,9.50115 -10.32203,9.50115s-10.32203,-4.20765 -10.32203,-9.50115"/>
   <ellipse stroke-dasharray="2,2" id="svg_381" fill="#EA2D83" ry="5.70069" rx="4.12881" cy="35.99784" cx="30.12673"/>
   <path stroke-dasharray="2,2" id="svg_382" fill="#A0007A" d="m30.12673,41.69853c-2.21186,0 -4.12881,-2.57888 -4.12881,-5.70069s1.76949,-5.70069 4.12881,-5.70069"/>
   <path stroke-dasharray="2,2" id="svg_383" fill="#AEC9D3" d="m25.26063,60.70083c-0.44237,1.35731 -1.91695,2.30742 -3.53898,1.90023l0,0c-1.47458,-0.40719 -2.50678,-1.7645 -2.06441,-3.25754l6.78305,-23.75288c0.44237,-1.35731 1.91695,-2.30742 3.53898,-1.90023l0,0c1.47458,0.40719 2.50678,1.7645 2.06441,3.25754l-6.78305,23.75288z"/>
   <path stroke-dasharray="2,2" id="svg_384" fill="#8DAAB2" d="m25.26063,60.70083c-0.44237,1.35731 -1.91695,2.30742 -3.53898,1.90023l0,0c-1.47458,-0.40719 -2.50678,-1.7645 -2.06441,-3.25754l6.78305,-23.75288c0.44237,-1.35731 1.91695,-2.30742 3.53898,-1.90023l0,0"/>
   <path stroke-dasharray="2,2" id="svg_385" fill="#EA2D83" d="m38.53181,62.05814c0,2.30742 -2.06441,4.75058 -4.57119,4.75058l-13.86102,0c-2.50678,0 -3.09661,-2.44315 -3.09661,-4.75058l0,0c0,-2.30742 2.06441,-4.75058 4.57119,-4.75058l13.86102,0c2.50678,0 3.09661,2.44315 3.09661,4.75058l0,0z"/>
   <path stroke-dasharray="2,2" id="svg_386" fill="#A0007A" d="m38.53181,62.19387l0,0c0,2.30742 -2.06441,4.61484 -4.57119,4.61484l-13.86102,0c-2.50678,0 -3.09661,-2.17169 -3.09661,-4.61484l0,0c0,-2.30742 1.76949,-4.88631 4.57119,-4.88631"/>
   <path stroke-dasharray="2,2" id="svg_387" fill="#FFFB76" d="m36.17249,62.19387c0,0.54292 -0.14746,1.08585 -0.73729,1.08585l0,0c-0.58983,0 -0.73729,-0.54292 -0.73729,-1.08585l0,-1.62877c0,-0.54292 0.14746,-1.08585 0.73729,-1.08585l0,0c0.58983,0 0.73729,0.54292 0.73729,1.08585l0,1.62877z"/>
   <g id="svg_390">
    <path stroke-dasharray="2,2" id="svg_388" fill="#8DAAB2" d="m42.80809,33.96187c0,0.27146 -0.14746,0.40719 -0.44237,0.40719l-2.94915,0c-0.29492,0 -0.44237,-0.13573 -0.44237,-0.40719l0,0c0,-0.27146 0.14746,-0.40719 0.44237,-0.40719l2.94915,0c0.14746,0 0.44237,0.13573 0.44237,0.40719l0,0z"/>
    <path stroke-dasharray="2,2" id="svg_389" fill="#8DAAB2" d="m41.48097,31.38299c0,0.27146 -0.14746,0.40719 -0.44237,0.40719l-2.94915,0c-0.29492,0 -0.44237,-0.13573 -0.44237,-0.40719l0,0c0,-0.27146 0.14746,-0.40719 0.44237,-0.40719l2.94915,0c0.29492,0 0.44237,0.13573 0.44237,0.40719l0,0z"/>
   </g>
   <g id="svg_394">
    <path stroke-dasharray="2,2" id="svg_391" fill="#AEC9D3" d="m36.17249,75.76694c0,0.27146 -0.29492,0.54292 -0.58983,0.54292l-6.19322,0c-0.29492,0 -0.58983,-0.27146 -0.58983,-0.54292l0,-0.27146c0,-0.27146 0.29492,-0.54292 0.58983,-0.54292l6.19322,0c0.29492,0 0.58983,0.27146 0.58983,0.54292l0,0.27146z"/>
    <path stroke-dasharray="2,2" id="svg_392" fill="#AEC9D3" d="m36.17249,78.48155c0,0.27146 -0.29492,0.54292 -0.58983,0.54292l-6.19322,0c-0.29492,0 -0.58983,-0.27146 -0.58983,-0.54292l0,-0.27146c0,-0.27146 0.29492,-0.54292 0.58983,-0.54292l6.19322,0c0.29492,0 0.58983,0.27146 0.58983,0.54292l0,0.27146z"/>
    <path stroke-dasharray="2,2" id="svg_393" fill="#AEC9D3" d="m36.17249,81.19617c0,0.27146 -0.29492,0.54292 -0.58983,0.54292l-6.19322,0c-0.29492,0 -0.58983,-0.27146 -0.58983,-0.54292l0,-0.27146c0,-0.27146 0.29492,-0.54292 0.58983,-0.54292l6.19322,0c0.29492,0 0.58983,0.27146 0.58983,0.54292l0,0.27146z"/>
   </g>
   <g id="svg_398">
    <path stroke-dasharray="2,2" id="svg_395" fill="#8DAAB2" d="m46.49453,59.75071c-0.29492,0 -0.58983,-0.27146 -0.58983,-0.54292l0,0c0,-0.27146 0.29492,-0.54292 0.58983,-0.54292l15.63051,0c0.29492,0 0.58983,0.27146 0.58983,0.54292l0,0c0,0.27146 -0.29492,0.54292 -0.58983,0.54292"/>
    <path stroke-dasharray="2,2" id="svg_396" fill="#8DAAB2" d="m62.71486,63.55117c0,0.27146 -0.29492,0.54292 -0.58983,0.54292l-15.04068,0c-0.29492,0 -0.58983,-0.27146 -0.58983,-0.54292l0,-0.27146c0,-0.27146 0.29492,-0.54292 0.58983,-0.54292l15.04068,0c0.29492,0 0.58983,0.27146 0.58983,0.54292l0,0.27146z"/>
    <path stroke-dasharray="2,2" id="svg_397" fill="#8DAAB2" d="m62.71486,67.6231c0,0.27146 -0.29492,0.54292 -0.58983,0.54292l-15.04068,0c-0.29492,0 -0.58983,-0.27146 -0.58983,-0.54292l0,-0.27146c0,-0.27146 0.29492,-0.54292 0.58983,-0.54292l15.04068,0c0.29492,0 0.58983,0.27146 0.58983,0.54292l0,0.27146z"/>
   </g>
   <ellipse stroke-dasharray="2,2" id="svg_399" fill="#FFFB76" ry="2.57888" rx="11.35424" cy="27.4468" cx="65.07419"/>
   <g id="svg_404">
    <path stroke-dasharray="2,2" id="svg_400" fill="#FFD67B" d="m76.42842,27.4468c0,1.49304 -5.01356,2.57888 -11.35424,2.57888s-11.35424,-1.22158 -11.35424,-2.57888"/>
    <ellipse stroke-dasharray="2,2" id="svg_401" fill="#FFD67B" ry="1.08585" rx="0.73729" cy="35.59064" cx="67.72842"/>
    <ellipse stroke-dasharray="2,2" id="svg_402" fill="#FFD67B" ry="1.08585" rx="0.73729" cy="40.06976" cx="67.72842"/>
    <ellipse stroke-dasharray="2,2" id="svg_403" fill="#FFD67B" ry="1.08585" rx="0.73729" cy="44.54887" cx="67.72842"/>
   </g>
  </g>
  <g filter="url(#svg_473_blur)" opacity="0.54" id="svg_473">
   <path id="svg_406" fill="#AEC9D3" d="m772.66388,147.11085c-0.40678,1.26838 -1.76271,2.15625 -3.25424,1.77573l0,0c-1.35593,-0.38051 -2.30508,-1.64889 -1.89831,-3.04411l6.23729,-22.19666c0.40678,-1.26838 1.76271,-2.15625 3.25424,-1.77573l0,0c1.35593,0.38051 2.30508,1.64889 1.89831,3.04411l-6.23729,22.19666z"/>
   <path id="svg_407" fill="#8DAAB2" d="m772.66388,147.11085c-0.40678,1.26838 -1.76271,2.15625 -3.25424,1.77573l0,0c-1.35593,-0.38051 -2.30508,-1.64889 -1.89831,-3.04411l6.23729,-22.19666c0.40678,-1.26838 1.76271,-2.15625 3.25424,-1.77573l0,0"/>
   <path id="svg_408" fill="#EA2D83" d="m784.86727,148.37923c0,2.15625 -1.89831,4.43933 -4.20339,4.43933l-12.74576,0c-2.30508,0 -2.84746,-2.28309 -2.84746,-4.43933l0,0c0,-2.15625 1.89831,-4.43933 4.20339,-4.43933l12.74576,0c2.30508,0 2.84746,2.28309 2.84746,4.43933l0,0z"/>
   <path id="svg_409" fill="#A0007A" d="m784.86727,148.50607l0,0c0,2.15625 -1.89831,4.31249 -4.20339,4.31249l-12.74576,0c-2.30508,0 -2.84746,-2.02941 -2.84746,-4.31249l0,0c0,-2.15625 1.62712,-4.56617 4.20339,-4.56617"/>
   <path id="svg_410" fill="#FFFB76" d="m783.37574,148.50607c0,0.50735 -0.81356,1.0147 -1.35593,1.0147l0,0c-0.54237,0 -1.35593,-0.50735 -1.35593,-1.0147l0,-1.52206c0,-0.50735 0.81356,-1.0147 1.35593,-1.0147l0,0c0.54237,0 1.35593,0.50735 1.35593,1.0147l0,1.52206z"/>
   <g id="svg_413">
    <circle id="svg_411" fill="#00233F" r="3.08234" cy="124.02633" cx="772.93506"/>
    <path id="svg_412" fill="#00233F" d="m769.00286,178.69353c0,0.38051 -0.40678,0.76103 -0.81356,0.76103l0,0c-0.40678,0 -0.81356,-0.38051 -0.81356,-0.76103l0,0c0,-0.38051 0.40678,-0.76103 0.81356,-0.76103l0,0c0.54237,0 0.81356,0.25368 0.81356,0.76103l0,0z"/>
   </g>
   <circle id="svg_414" fill="#095589" r="1.67328" cy="178.18618" cx="775.78252"/>
   <path id="svg_415" fill="#00233F" d="m775.78252,173.36633c2.84746,0 5.15254,2.15625 5.15254,4.81985s-2.30508,4.81985 -5.15254,4.81985"/>
   <circle id="svg_416" fill="#38ADD6" r="0.70453" cy="178.18618" cx="775.78252"/>
   <path id="svg_417" fill="#0C86BC" d="m777.40964,176.66412c0.81356,0.76103 0.81356,2.02941 0,2.91728c-0.81356,0.76103 -2.16949,0.76103 -3.11864,0"/>
   <circle id="svg_418" fill="#095589" r="1.67328" cy="178.18618" cx="791.10456"/>
   <path id="svg_419" fill="#00233F" d="m791.10456,173.36633c2.84746,0 5.15254,2.15625 5.15254,4.81985s-2.30508,4.81985 -5.15254,4.81985"/>
   <circle id="svg_420" fill="#38ADD6" r="0.70453" cy="178.18618" cx="791.10456"/>
   <path id="svg_421" fill="#0C86BC" d="m792.59608,176.66412c0.81356,0.76103 0.81356,2.02941 0,2.91728c-0.81356,0.76103 -2.16949,0.76103 -3.11864,0"/>
   <path id="svg_422" fill="#00233F" d="m764.39269,156.37003c0,4.43933 -3.79661,7.86396 -8.40678,7.86396l-0.67797,0c-4.74576,0 -8.40678,-3.55147 -8.40678,-7.86396l0,-13.44483c0,-4.43933 3.79661,-7.86396 8.40678,-7.86396l0.67797,0c4.74576,0 8.40678,3.55147 8.40678,7.86396l0,13.44483z"/>
   <path id="svg_423" fill="#095589" d="m754.90117,135.06124l0,0c4.74576,0 8.13559,3.55147 8.13559,7.86396l0,13.318c0,4.43933 -3.66102,7.86396 -8.27119,7.86396l0,0"/>
   <g id="svg_426">
    <path id="svg_424" fill="#EA2D83" d="m795.57913,171.84428l0,-1.77573c0,-7.9908 -6.64407,-14.71322 -15.18644,-14.71322l-45.01695,0c-8.54237,0 -10.30508,6.72242 -10.30508,14.71322l0,1.77573l70.50847,0z"/>
    <path id="svg_425" fill="#EA2D83" d="m777.27405,128.08514c0,11.41543 -10.16949,14.20586 -22.77966,14.20586c-23.45763,0 -22.77966,-2.91728 -22.77966,-14.20586c0,-21.56247 -18.71186,-23.08453 22.77966,-23.08453c23.45763,-0.12684 22.77966,11.6691 22.77966,23.08453z"/>
   </g>
   <g id="svg_429">
    <path id="svg_427" fill="#A0007A" d="m731.71473,128.08514c0,9.51285 -0.40678,13.06432 13.15254,13.95219c7.05085,-0.88787 7.05085,-3.93198 7.05085,-12.93748c0,-10.90807 0,-22.57718 -12.61017,-22.57718c-4.0678,0 -7.45763,0 -10.44068,0c-4.20339,2.6636 2.84746,8.37131 2.84746,21.56247z"/>
    <path id="svg_428" fill="#A0007A" d="m753.13845,155.35533l-17.76271,0c-8.54237,0 -10.30508,6.72242 -10.30508,14.71322l0,1.77573l43.38983,0l0,-1.77573c0,-7.9908 -6.77966,-14.71322 -15.32203,-14.71322z"/>
   </g>
   <path id="svg_430" fill="#AEC9D3" d="m801.00286,173.2395c0,1.26838 -1.08475,2.40992 -2.57627,2.40992l-73.49153,0c-1.35593,0 -2.57627,-1.0147 -2.57627,-2.40992l0,-0.25368c0,-1.26838 1.08475,-2.40992 2.57627,-2.40992l73.49153,0c1.35593,0 2.57627,1.0147 2.57627,2.40992l0,0.25368l0,0z"/>
   <path id="svg_431" fill="#8DAAB2" d="m801.00286,175.77626c0,1.26838 -1.08475,2.40992 -2.57627,2.40992l-73.49153,0c-1.35593,0 -2.57627,-1.0147 -2.57627,-2.40992l0,-0.25368c0,-1.26838 1.08475,-2.40992 2.57627,-2.40992l73.49153,0c1.35593,0 2.57627,1.0147 2.57627,2.40992l0,0.25368l0,0z"/>
   <circle id="svg_432" fill="#095589" r="1.67325" cy="178.18618" cx="730.08761"/>
   <path id="svg_433" fill="#00233F" d="m730.08761,173.36633c2.84746,0 5.15254,2.15625 5.15254,4.81985s-2.30508,4.81985 -5.15254,4.81985"/>
   <circle id="svg_434" fill="#38ADD6" r="0.70453" cy="178.18618" cx="730.08761"/>
   <path id="svg_435" fill="#0C86BC" d="m731.57913,176.66412c0.81356,0.76103 0.81356,2.02941 0,2.91728c-0.81356,0.76103 -2.16949,0.76103 -3.11864,0"/>
   <circle id="svg_436" fill="#095589" r="1.67328" cy="178.18618" cx="745.27405"/>
   <path id="svg_437" fill="#00233F" d="m745.27405,173.36633c2.84746,0 5.15254,2.15625 5.15254,4.81985s-2.30508,4.81985 -5.15254,4.81985"/>
   <circle id="svg_438" fill="#38ADD6" r="0.70452" cy="178.18618" cx="745.27405"/>
   <path id="svg_439" fill="#0C86BC" d="m746.90117,176.66412c0.81356,0.76103 0.81356,2.02941 0,2.91728c-0.81356,0.76103 -2.16949,0.76103 -3.11864,0"/>
   <circle id="svg_440" fill="#095589" r="1.67328" cy="178.18618" cx="760.59608"/>
   <path id="svg_441" fill="#00233F" d="m760.59608,173.36633c2.84746,0 5.15254,2.15625 5.15254,4.81985s-2.30508,4.81985 -5.15254,4.81985"/>
   <circle id="svg_442" fill="#38ADD6" r="0.70452" cy="178.18618" cx="760.59608"/>
   <g id="svg_446">
    <path id="svg_443" fill="#0C86BC" d="m762.08761,176.66412c0.81356,0.76103 0.81356,2.02941 0,2.91728c-0.81356,0.76103 -2.16949,0.76103 -3.11864,0"/>
    <path id="svg_444" fill="#0C86BC" d="m738.35879,178.69353c0,0.38051 -0.40678,0.76103 -0.81356,0.76103l0,0c-0.40678,0 -0.81356,-0.38051 -0.81356,-0.76103l0,0c0,-0.38051 0.40678,-0.76103 0.81356,-0.76103l0,0c0.40678,0 0.81356,0.25368 0.81356,0.76103l0,0z"/>
    <path id="svg_445" fill="#0C86BC" d="m753.68083,178.69353c0,0.38051 -0.40678,0.76103 -0.81356,0.76103l0,0c-0.40678,0 -0.81356,-0.38051 -0.81356,-0.76103l0,0c0,-0.38051 0.40678,-0.76103 0.81356,-0.76103l0,0c0.40678,0 0.81356,0.25368 0.81356,0.76103l0,0z"/>
   </g>
   <circle id="svg_447" fill="#095589" r="3.08234" cy="124.02633" cx="737.40964"/>
   <path id="svg_448" fill="#00233F" d="m746.90117,124.02633c0,4.94668 -4.20339,8.87866 -9.49153,8.87866s-9.49153,-3.93198 -9.49153,-8.87866"/>
   <ellipse id="svg_449" fill="#EA2D83" ry="5.3272" rx="3.79661" cy="124.02633" cx="733.07066"/>
   <path id="svg_450" fill="#A0007A" d="m733.07066,129.35352c-2.0339,0 -3.79661,-2.40992 -3.79661,-5.3272s1.62712,-5.3272 3.79661,-5.3272"/>
   <path id="svg_451" fill="#AEC9D3" d="m728.59608,147.11085c-0.40678,1.26838 -1.76271,2.15625 -3.25424,1.77573l0,0c-1.35593,-0.38051 -2.30508,-1.64889 -1.89831,-3.04411l6.23729,-22.19666c0.40678,-1.26838 1.76271,-2.15625 3.25424,-1.77573l0,0c1.35593,0.38051 2.30508,1.64889 1.89831,3.04411l-6.23729,22.19666z"/>
   <path id="svg_452" fill="#8DAAB2" d="m728.59608,147.11085c-0.40678,1.26838 -1.76271,2.15625 -3.25424,1.77573l0,0c-1.35593,-0.38051 -2.30508,-1.64889 -1.89831,-3.04411l6.23729,-22.19666c0.40678,-1.26838 1.76271,-2.15625 3.25424,-1.77573l0,0"/>
   <path id="svg_453" fill="#EA2D83" d="m740.79947,148.37923c0,2.15625 -1.89831,4.43933 -4.20339,4.43933l-12.74576,0c-2.30508,0 -2.84746,-2.28309 -2.84746,-4.43933l0,0c0,-2.15625 1.89831,-4.43933 4.20339,-4.43933l12.74576,0c2.30508,0 2.84746,2.28309 2.84746,4.43933l0,0z"/>
   <path id="svg_454" fill="#A0007A" d="m740.79947,148.50607l0,0c0,2.15625 -1.89831,4.31249 -4.20339,4.31249l-12.74576,0c-2.30508,0 -2.84746,-2.02941 -2.84746,-4.31249l0,0c0,-2.15625 1.62712,-4.56617 4.20339,-4.56617"/>
   <path id="svg_455" fill="#FFFB76" d="m738.62998,148.50607c0,0.50735 -0.13559,1.0147 -0.67797,1.0147l0,0c-0.54237,0 -0.67797,-0.50735 -0.67797,-1.0147l0,-1.52206c0,-0.50735 0.13559,-1.0147 0.67797,-1.0147l0,0c0.54237,0 0.67797,0.50735 0.67797,1.0147l0,1.52206z"/>
   <g id="svg_458">
    <path id="svg_456" fill="#8DAAB2" d="m744.73167,122.12375c0,0.25368 -0.13559,0.38051 -0.40678,0.38051l-2.71186,0c-0.27119,0 -0.40678,-0.12684 -0.40678,-0.38051l0,0c0,-0.25368 0.13559,-0.38051 0.40678,-0.38051l2.71186,0c0.13559,0 0.40678,0.12684 0.40678,0.38051l0,0z"/>
    <path id="svg_457" fill="#8DAAB2" d="m743.51134,119.71383c0,0.25368 -0.13559,0.38051 -0.40678,0.38051l-2.71186,0c-0.27119,0 -0.40678,-0.12684 -0.40678,-0.38051l0,0c0,-0.25368 0.13559,-0.38051 0.40678,-0.38051l2.71186,0c0.27119,0 0.40678,0.12684 0.40678,0.38051l0,0z"/>
   </g>
   <g id="svg_462">
    <path id="svg_459" fill="#AEC9D3" d="m738.62998,161.18988c0,0.25368 -0.27119,0.50735 -0.54237,0.50735l-5.69492,0c-0.27119,0 -0.54237,-0.25368 -0.54237,-0.50735l0,-0.25368c0,-0.25368 0.27119,-0.50735 0.54237,-0.50735l5.69492,0c0.27119,0 0.54237,0.25368 0.54237,0.50735l0,0.25368z"/>
    <path id="svg_460" fill="#AEC9D3" d="m738.62998,163.72664c0,0.25368 -0.27119,0.50735 -0.54237,0.50735l-5.69492,0c-0.27119,0 -0.54237,-0.25368 -0.54237,-0.50735l0,-0.25368c0,-0.25368 0.27119,-0.50735 0.54237,-0.50735l5.69492,0c0.27119,0 0.54237,0.25368 0.54237,0.50735l0,0.25368z"/>
    <path id="svg_461" fill="#AEC9D3" d="m738.62998,166.2634c0,0.25368 -0.27119,0.50735 -0.54237,0.50735l-5.69492,0c-0.27119,0 -0.54237,-0.25368 -0.54237,-0.50735l0,-0.25368c0,-0.25368 0.27119,-0.50735 0.54237,-0.50735l5.69492,0c0.27119,0 0.54237,0.25368 0.54237,0.50735l0,0.25368z"/>
   </g>
   <g id="svg_466">
    <path id="svg_463" fill="#8DAAB2" d="m748.12151,146.22299c-0.27119,0 -0.54237,-0.25368 -0.54237,-0.50735l0,0c0,-0.25368 0.27119,-0.50735 0.54237,-0.50735l14.37288,0c0.27119,0 0.54237,0.25368 0.54237,0.50735l0,0c0,0.25368 -0.27119,0.50735 -0.54237,0.50735"/>
    <path id="svg_464" fill="#8DAAB2" d="m763.03676,149.77445c0,0.25368 -0.27119,0.50735 -0.54237,0.50735l-13.83051,0c-0.27119,0 -0.54237,-0.25368 -0.54237,-0.50735l0,-0.25368c0,-0.25368 0.27119,-0.50735 0.54237,-0.50735l13.83051,0c0.27119,0 0.54237,0.25368 0.54237,0.50735l0,0.25368z"/>
    <path id="svg_465" fill="#8DAAB2" d="m763.03676,153.5796c0,0.25368 -0.27119,0.50735 -0.54237,0.50735l-13.83051,0c-0.27119,0 -0.54237,-0.25368 -0.54237,-0.50735l0,-0.25368c0,-0.25368 0.27119,-0.50735 0.54237,-0.50735l13.83051,0c0.27119,0 0.54237,0.25368 0.54237,0.50735l0,0.25368z"/>
   </g>
   <ellipse id="svg_467" fill="#FFFB76" ry="2.40992" rx="10.44068" cy="116.03553" cx="765.20625"/>
   <g id="svg_472">
    <path id="svg_468" fill="#FFD67B" d="m775.64693,116.03553c0,1.39522 -4.61017,2.40992 -10.44068,2.40992s-10.44068,-1.14154 -10.44068,-2.40992"/>
    <ellipse id="svg_469" fill="#FFD67B" ry="1.0147" rx="0.67797" cy="123.64581" cx="767.64693"/>
    <ellipse id="svg_470" fill="#FFD67B" ry="1.0147" rx="0.67797" cy="127.83147" cx="767.64693"/>
    <ellipse id="svg_471" fill="#FFD67B" ry="1.0147" rx="0.67797" cy="132.01712" cx="767.64693"/>
   </g>
  </g>
  <g id="svg_474">
   <path id="svg_203" fill="#AEC9D3" d="m1121.59452,393.98971c-0.91017,3.46347 -3.94407,5.88791 -7.28136,4.84886l0,0c-3.0339,-1.03904 -5.15763,-4.50252 -4.24746,-8.31234l13.95593,-60.61079c0.91017,-3.46347 3.94407,-5.88791 7.28136,-4.84886l0,0c3.0339,1.03904 5.15763,4.50252 4.24746,8.31234l-13.95593,60.61079z"/>
   <path id="svg_204" fill="#8DAAB2" d="m1121.59452,393.98971c-0.91017,3.46347 -3.94407,5.88791 -7.28136,4.84886l0,0c-3.0339,-1.03904 -5.15763,-4.50252 -4.24746,-8.31234l13.95593,-60.61079c0.91017,-3.46347 3.94407,-5.88791 7.28136,-4.84886l0,0"/>
   <path id="svg_205" fill="#EA2D83" d="m1148.8996,397.45318c0,5.88791 -4.24746,12.12216 -9.40509,12.12216l-28.51865,0c-5.15763,0 -6.37119,-6.23425 -6.37119,-12.12216l0,0c0,-5.88791 4.24746,-12.12216 9.40509,-12.12216l28.51865,0c5.15763,0 6.37119,6.23425 6.37119,12.12216l0,0z"/>
   <path id="svg_206" fill="#A0007A" d="m1148.8996,397.79953l0,0c0,5.88791 -4.24746,11.77581 -9.40509,11.77581l-28.51865,0c-5.15763,0 -6.37119,-5.54156 -6.37119,-11.77581l0,0c0,-5.88791 3.64068,-12.46851 9.40509,-12.46851"/>
   <path id="svg_207" fill="#FFFB76" d="m1145.56231,397.79953c0,1.38539 -1.82034,2.77078 -3.0339,2.77078l0,0c-1.21356,0 -3.0339,-1.38539 -3.0339,-2.77078l0,-4.15617c0,-1.38539 1.82034,-2.77078 3.0339,-2.77078l0,0c1.21356,0 3.0339,1.38539 3.0339,2.77078l0,4.15617z"/>
   <g id="svg_210">
    <circle id="svg_208" fill="#00233F" r="18.83254" cy="330.95448" cx="1122.20129"/>
    <path id="svg_209" fill="#00233F" d="m1113.40299,480.23021c0,1.03904 -0.91017,2.07808 -1.82034,2.07808l0,0c-0.91017,0 -1.82034,-1.03904 -1.82034,-2.07808l0,0c0,-1.03904 0.91017,-2.07808 1.82034,-2.07808l0,0c1.21356,0 1.82034,0.69269 1.82034,2.07808l0,0z"/>
   </g>
   <circle id="svg_211" fill="#095589" r="10.22339" cy="478.84482" cx="1128.57248"/>
   <path id="svg_212" fill="#00233F" d="m1128.57248,465.68362c6.37119,0 11.52881,5.88791 11.52881,13.1612s-5.15763,13.1612 -11.52881,13.1612"/>
   <circle id="svg_213" fill="#38ADD6" r="4.3046" cy="478.84482" cx="1128.57248"/>
   <path id="svg_214" fill="#0C86BC" d="m1132.21316,474.68865c1.82034,2.07808 1.82034,5.54156 0,7.96599c-1.82034,2.07808 -4.85424,2.07808 -6.97797,0"/>
   <circle id="svg_215" fill="#095589" r="10.22336" cy="478.84482" cx="1162.85553"/>
   <path id="svg_216" fill="#00233F" d="m1162.85553,465.68362c6.37119,0 11.52881,5.88791 11.52881,13.1612s-5.15763,13.1612 -11.52881,13.1612"/>
   <circle id="svg_217" fill="#38ADD6" r="4.3046" cy="478.84482" cx="1162.85553"/>
   <path id="svg_218" fill="#0C86BC" d="m1166.19282,474.68865c1.82034,2.07808 1.82034,5.54156 0,7.96599c-1.82034,2.07808 -4.85424,2.07808 -6.97797,0"/>
   <path id="svg_219" fill="#00233F" d="m1103.08773,419.27307c0,12.12216 -8.49492,21.47354 -18.81017,21.47354l-1.51695,0c-10.61864,0 -18.81017,-9.69773 -18.81017,-21.47354l0,-36.71282c0,-12.12216 8.49492,-21.47354 18.81017,-21.47354l1.51695,0c10.61864,0 18.81017,9.69773 18.81017,21.47354l0,36.71282z"/>
   <path id="svg_220" fill="#095589" d="m1081.85045,361.08671l0,0c10.61864,0 18.20339,9.69773 18.20339,21.47354l0,36.36648c0,12.12216 -8.19153,21.47354 -18.50678,21.47354l0,0"/>
   <g id="svg_223">
    <path id="svg_221" fill="#EA2D83" d="m1172.8674,461.52745l0,-4.84886c0,-21.81989 -14.8661,-40.1763 -33.97966,-40.1763l-100.72543,0c-19.11356,0 -23.05763,18.35641 -23.05763,40.1763l0,4.84886l157.76272,0z"/>
    <path id="svg_222" fill="#EA2D83" d="m1131.90977,342.0376c0,31.17127 -22.75424,38.79091 -50.96949,38.79091c-52.48644,0 -50.96949,-7.96599 -50.96949,-38.79091c0,-58.87906 -41.8678,-63.03523 50.96949,-63.03523c52.48644,-0.34635 50.96949,31.86396 50.96949,63.03523z"/>
   </g>
   <g id="svg_226">
    <path id="svg_224" fill="#A0007A" d="m1029.97078,342.0376c0,25.97605 -0.91017,35.67378 29.42881,38.09821c15.77627,-2.42443 15.77627,-10.73677 15.77627,-35.32743c0,-29.78588 0,-61.64984 -28.21526,-61.64984c-9.1017,0 -16.68644,0 -23.36102,0c-9.40509,7.2733 6.37119,22.85893 6.37119,58.87906z"/>
    <path id="svg_225" fill="#A0007A" d="m1077.90638,416.50229l-39.74407,0c-19.11356,0 -23.05763,18.35641 -23.05763,40.1763l0,4.84886l97.08475,0l0,-4.84886c0,-21.81989 -15.16949,-40.1763 -34.28305,-40.1763z"/>
   </g>
   <path id="svg_227" fill="#AEC9D3" d="m1185.00299,465.33727c0,3.46347 -2.42712,6.5806 -5.76441,6.5806l-164.43729,0c-3.0339,0 -5.76441,-2.77078 -5.76441,-6.5806l0,-0.69269c0,-3.46347 2.42712,-6.5806 5.76441,-6.5806l164.43729,0c3.0339,0 5.76441,2.77078 5.76441,6.5806l0,0.69269l0,0z"/>
   <path id="svg_228" fill="#8DAAB2" d="m1185.00299,472.26422c0,3.46347 -2.42712,6.5806 -5.76441,6.5806l-164.43729,0c-3.0339,0 -5.76441,-2.77078 -5.76441,-6.5806l0,-0.69269c0,-3.46347 2.42712,-6.5806 5.76441,-6.5806l164.43729,0c3.0339,0 5.76441,2.77078 5.76441,6.5806l0,0.69269l0,0z"/>
   <circle id="svg_229" fill="#095589" r="10.22336" cy="478.84482" cx="1026.3301"/>
   <path id="svg_230" fill="#00233F" d="m1026.3301,465.68362c6.37119,0 11.52881,5.88791 11.52881,13.1612s-5.15763,13.1612 -11.52881,13.1612"/>
   <circle id="svg_231" fill="#38ADD6" r="4.3046" cy="478.84482" cx="1026.3301"/>
   <path id="svg_232" fill="#0C86BC" d="m1029.66739,474.68865c1.82034,2.07808 1.82034,5.54156 0,7.96599c-1.82034,2.07808 -4.85424,2.07808 -6.97797,0"/>
   <circle id="svg_233" fill="#095589" r="10.22339" cy="478.84482" cx="1060.30977"/>
   <path id="svg_234" fill="#00233F" d="m1060.30977,465.68362c6.37119,0 11.52881,5.88791 11.52881,13.1612s-5.15763,13.1612 -11.52881,13.1612"/>
   <circle id="svg_235" fill="#38ADD6" r="4.3046" cy="478.84482" cx="1060.30977"/>
   <path id="svg_236" fill="#0C86BC" d="m1063.95045,474.68865c1.82034,2.07808 1.82034,5.54156 0,7.96599c-1.82034,2.07808 -4.85424,2.07808 -6.97797,0"/>
   <circle id="svg_237" fill="#095589" r="10.22339" cy="478.84482" cx="1094.59282"/>
   <path id="svg_238" fill="#00233F" d="m1094.59282,465.68362c6.37119,0 11.52881,5.88791 11.52881,13.1612s-5.15763,13.1612 -11.52881,13.1612"/>
   <circle id="svg_239" fill="#38ADD6" r="4.3046" cy="478.84482" cx="1094.59282"/>
   <g id="svg_243">
    <path id="svg_240" fill="#0C86BC" d="m1097.93011,474.68865c1.82034,2.07808 1.82034,5.54156 0,7.96599c-1.82034,2.07808 -4.85424,2.07808 -6.97797,0"/>
    <path id="svg_241" fill="#0C86BC" d="m1044.83689,480.23021c0,1.03904 -0.91017,2.07808 -1.82034,2.07808l0,0c-0.91017,0 -1.82034,-1.03904 -1.82034,-2.07808l0,0c0,-1.03904 0.91017,-2.07808 1.82034,-2.07808l0,0c0.91017,0 1.82034,0.69269 1.82034,2.07808l0,0z"/>
    <path id="svg_242" fill="#0C86BC" d="m1079.11994,480.23021c0,1.03904 -0.91017,2.07808 -1.82034,2.07808l0,0c-0.91017,0 -1.82034,-1.03904 -1.82034,-2.07808l0,0c0,-1.03904 0.91017,-2.07808 1.82034,-2.07808l0,0c0.91017,0 1.82034,0.69269 1.82034,2.07808l0,0z"/>
   </g>
   <circle id="svg_244" fill="#095589" r="18.83252" cy="330.95448" cx="1042.71316"/>
   <path id="svg_245" fill="#00233F" d="m1063.95045,330.95448c0,13.50755 -9.40509,24.24432 -21.23729,24.24432s-21.23729,-10.73677 -21.23729,-24.24432"/>
   <ellipse id="svg_246" fill="#EA2D83" ry="14.54659" rx="8.49492" cy="330.95448" cx="1033.00468"/>
   <path id="svg_247" fill="#A0007A" d="m1033.00468,345.50107c-4.55085,0 -8.49492,-6.5806 -8.49492,-14.54659s3.64068,-14.54659 8.49492,-14.54659"/>
   <path id="svg_248" fill="#AEC9D3" d="m1022.99282,393.98971c-0.91017,3.46347 -3.94407,5.88791 -7.28136,4.84886l0,0c-3.0339,-1.03904 -5.15763,-4.50252 -4.24746,-8.31234l13.95593,-60.61079c0.91017,-3.46347 3.94407,-5.88791 7.28136,-4.84886l0,0c3.0339,1.03904 5.15763,4.50252 4.24746,8.31234l-13.95593,60.61079z"/>
   <path id="svg_249" fill="#8DAAB2" d="m1022.99282,393.98971c-0.91017,3.46347 -3.94407,5.88791 -7.28136,4.84886l0,0c-3.0339,-1.03904 -5.15763,-4.50252 -4.24746,-8.31234l13.95593,-60.61079c0.91017,-3.46347 3.94407,-5.88791 7.28136,-4.84886l0,0"/>
   <path id="svg_250" fill="#EA2D83" d="m1050.2979,397.45318c0,5.88791 -4.24746,12.12216 -9.40509,12.12216l-28.51865,0c-5.15763,0 -6.37119,-6.23425 -6.37119,-12.12216l0,0c0,-5.88791 4.24746,-12.12216 9.40509,-12.12216l28.51865,0c5.15763,0 6.37119,6.23425 6.37119,12.12216l0,0z"/>
   <path id="svg_251" fill="#A0007A" d="m1050.2979,397.79953l0,0c0,5.88791 -4.24746,11.77581 -9.40509,11.77581l-28.51865,0c-5.15763,0 -6.37119,-5.54156 -6.37119,-11.77581l0,0c0,-5.88791 3.64068,-12.46851 9.40509,-12.46851"/>
   <path id="svg_252" fill="#FFFB76" d="m1045.44367,397.79953c0,1.38539 -0.30339,2.77078 -1.51695,2.77078l0,0c-1.21356,0 -1.51695,-1.38539 -1.51695,-2.77078l0,-4.15617c0,-1.38539 0.30339,-2.77078 1.51695,-2.77078l0,0c1.21356,0 1.51695,1.38539 1.51695,2.77078l0,4.15617z"/>
   <g id="svg_255">
    <path id="svg_253" fill="#8DAAB2" d="m1059.09621,325.75927c0,0.69269 -0.30339,1.03904 -0.91017,1.03904l-6.0678,0c-0.60678,0 -0.91017,-0.34635 -0.91017,-1.03904l0,0c0,-0.69269 0.30339,-1.03904 0.91017,-1.03904l6.0678,0c0.30339,0 0.91017,0.34635 0.91017,1.03904l0,0z"/>
    <path id="svg_254" fill="#8DAAB2" d="m1056.3657,319.17867c0,0.69269 -0.30339,1.03904 -0.91017,1.03904l-6.0678,0c-0.60678,0 -0.91017,-0.34635 -0.91017,-1.03904l0,0c0,-0.69269 0.30339,-1.03904 0.91017,-1.03904l6.0678,0c0.60678,0 0.91017,0.34635 0.91017,1.03904l0,0z"/>
   </g>
   <g id="svg_259">
    <path id="svg_256" fill="#AEC9D3" d="m1045.44367,432.43427c0,0.69269 -0.60678,1.38539 -1.21356,1.38539l-12.74237,0c-0.60678,0 -1.21356,-0.69269 -1.21356,-1.38539l0,-0.69269c0,-0.69269 0.60678,-1.38539 1.21356,-1.38539l12.74237,0c0.60678,0 1.21356,0.69269 1.21356,1.38539l0,0.69269z"/>
    <path id="svg_257" fill="#AEC9D3" d="m1045.44367,439.36122c0,0.69269 -0.60678,1.38539 -1.21356,1.38539l-12.74237,0c-0.60678,0 -1.21356,-0.69269 -1.21356,-1.38539l0,-0.69269c0,-0.69269 0.60678,-1.38539 1.21356,-1.38539l12.74237,0c0.60678,0 1.21356,0.69269 1.21356,1.38539l0,0.69269z"/>
    <path id="svg_258" fill="#AEC9D3" d="m1045.44367,446.28817c0,0.69269 -0.60678,1.38539 -1.21356,1.38539l-12.74237,0c-0.60678,0 -1.21356,-0.69269 -1.21356,-1.38539l0,-0.69269c0,-0.69269 0.60678,-1.38539 1.21356,-1.38539l12.74237,0c0.60678,0 1.21356,0.69269 1.21356,1.38539l0,0.69269z"/>
   </g>
   <g id="svg_263">
    <path id="svg_260" fill="#8DAAB2" d="m1066.68095,391.56528c-0.60678,0 -1.21356,-0.69269 -1.21356,-1.38539l0,0c0,-0.69269 0.60678,-1.38539 1.21356,-1.38539l32.15932,0c0.60678,0 1.21356,0.69269 1.21356,1.38539l0,0c0,0.69269 -0.60678,1.38539 -1.21356,1.38539"/>
    <path id="svg_261" fill="#8DAAB2" d="m1100.05384,401.26301c0,0.69269 -0.60678,1.38539 -1.21356,1.38539l-30.94576,0c-0.60678,0 -1.21356,-0.69269 -1.21356,-1.38539l0,-0.69269c0,-0.69269 0.60678,-1.38539 1.21356,-1.38539l30.94576,0c0.60678,0 1.21356,0.69269 1.21356,1.38539l0,0.69269z"/>
    <path id="svg_262" fill="#8DAAB2" d="m1100.05384,411.65343c0,0.69269 -0.60678,1.38539 -1.21356,1.38539l-30.94576,0c-0.60678,0 -1.21356,-0.69269 -1.21356,-1.38539l0,-0.69269c0,-0.69269 0.60678,-1.38539 1.21356,-1.38539l30.94576,0c0.60678,0 1.21356,0.69269 1.21356,1.38539l0,0.69269z"/>
   </g>
   <ellipse id="svg_264" fill="#FFFB76" ry="6.5806" rx="23.36102" cy="309.1346" cx="1104.90807"/>
   <g id="svg_269">
    <path id="svg_265" fill="#FFD67B" d="m1128.26909,309.1346c0,3.80982 -10.31525,6.5806 -23.36102,6.5806s-23.36102,-3.11713 -23.36102,-6.5806"/>
    <ellipse id="svg_266" fill="#FFD67B" ry="2.77078" rx="1.51695" cy="329.91544" cx="1110.36909"/>
    <ellipse id="svg_267" fill="#FFD67B" ry="2.77078" rx="1.51695" cy="341.34491" cx="1110.36909"/>
    <ellipse id="svg_268" fill="#FFD67B" ry="2.77078" rx="1.51695" cy="352.77437" cx="1110.36909"/>
   </g>
  </g>
  <g filter="url(#svg_542_blur)" opacity="0.4" id="svg_542">
   <path id="svg_475" fill="#AEC9D3" d="m945.87406,68.4247c-0.27458,0.85616 -1.18983,1.45547 -2.19661,1.19862l0,0c-0.91525,-0.25685 -1.55593,-1.113 -1.28136,-2.05478l4.21017,-14.98275c0.27458,-0.85616 1.18983,-1.45547 2.19661,-1.19862l0,0c0.91525,0.25685 1.55593,1.113 1.28136,2.05478l-4.21017,14.98275z"/>
   <path id="svg_476" fill="#8DAAB2" d="m945.87406,68.4247c-0.27458,0.85616 -1.18983,1.45547 -2.19661,1.19862l0,0c-0.91525,-0.25685 -1.55593,-1.113 -1.28136,-2.05478l4.21017,-14.98275c0.27458,-0.85616 1.18983,-1.45547 2.19661,-1.19862l0,0"/>
   <path id="svg_477" fill="#EA2D83" d="m954.11134,69.28085c0,1.45547 -1.28136,2.99655 -2.83729,2.99655l-8.60339,0c-1.55593,0 -1.92203,-1.54108 -1.92203,-2.99655l0,0c0,-1.45547 1.28136,-2.99655 2.83729,-2.99655l8.60339,0c1.55593,0 1.92203,1.54108 1.92203,2.99655l0,0z"/>
   <path id="svg_478" fill="#A0007A" d="m954.11134,69.36647l0,0c0,1.45547 -1.28136,2.91093 -2.83729,2.91093l-8.60339,0c-1.55593,0 -1.92203,-1.36985 -1.92203,-2.91093l0,0c0,-1.45547 1.09831,-3.08217 2.83729,-3.08217"/>
   <path id="svg_479" fill="#FFFB76" d="m953.10456,69.36647c0,0.34246 -0.54915,0.68493 -0.91525,0.68493l0,0c-0.3661,0 -0.91525,-0.34246 -0.91525,-0.68493l0,-1.02739c0,-0.34246 0.54915,-0.68493 0.91525,-0.68493l0,0c0.3661,0 0.91525,0.34246 0.91525,0.68493l0,1.02739z"/>
   <g id="svg_482">
    <circle id="svg_480" fill="#00233F" r="2.08057" cy="52.84264" cx="946.05711"/>
    <path id="svg_481" fill="#00233F" d="m943.40287,89.74301c0,0.25685 -0.27458,0.51369 -0.54915,0.51369l0,0c-0.27458,0 -0.54915,-0.25685 -0.54915,-0.51369l0,0c0,-0.25685 0.27458,-0.51369 0.54915,-0.51369l0,0c0.3661,0 0.54915,0.17123 0.54915,0.51369l0,0z"/>
   </g>
   <circle id="svg_483" fill="#095589" r="1.12946" cy="89.40054" cx="947.97914"/>
   <path id="svg_484" fill="#00233F" d="m947.97914,86.14715c1.92203,0 3.47797,1.45547 3.47797,3.2534s-1.55593,3.2534 -3.47797,3.2534"/>
   <circle id="svg_485" fill="#38ADD6" r="0.47556" cy="89.40054" cx="947.97914"/>
   <path id="svg_486" fill="#0C86BC" d="m949.07745,88.37315c0.54915,0.51369 0.54915,1.36985 0,1.96916c-0.54915,0.51369 -1.46441,0.51369 -2.10508,0"/>
   <circle id="svg_487" fill="#095589" r="1.12946" cy="89.40054" cx="958.32151"/>
   <path id="svg_488" fill="#00233F" d="m958.32151,86.14715c1.92203,0 3.47797,1.45547 3.47797,3.2534s-1.55593,3.2534 -3.47797,3.2534"/>
   <circle id="svg_489" fill="#38ADD6" r="0.47556" cy="89.40054" cx="958.32151"/>
   <path id="svg_490" fill="#0C86BC" d="m959.32829,88.37315c0.54915,0.51369 0.54915,1.36985 0,1.96916c-0.54915,0.51369 -1.46441,0.51369 -2.10508,0"/>
   <path id="svg_491" fill="#00233F" d="m940.291,74.67464c0,2.99655 -2.56271,5.30817 -5.67458,5.30817l-0.45763,0c-3.20339,0 -5.67458,-2.39724 -5.67458,-5.30817l0,-9.07526c0,-2.99655 2.56271,-5.30817 5.67458,-5.30817l0.45763,0c3.20339,0 5.67458,2.39724 5.67458,5.30817l0,9.07526z"/>
   <path id="svg_492" fill="#095589" d="m933.88422,60.29121l0,0c3.20339,0 5.49153,2.39724 5.49153,5.30817l0,8.98965c0,2.99655 -2.47119,5.30817 -5.58305,5.30817l0,0"/>
   <g id="svg_495">
    <path id="svg_493" fill="#EA2D83" d="m961.34185,85.11976l0,-1.19862c0,-5.39379 -4.48475,-9.93142 -10.25085,-9.93142l-30.38644,0c-5.7661,0 -6.95593,4.53763 -6.95593,9.93142l0,1.19862l47.59322,0z"/>
    <path id="svg_494" fill="#EA2D83" d="m948.98592,55.58234c0,7.70541 -6.86441,9.58896 -15.37627,9.58896c-15.8339,0 -15.37627,-1.96916 -15.37627,-9.58896c0,-14.55467 -12.63051,-15.58206 15.37627,-15.58206c15.8339,-0.08562 15.37627,7.87664 15.37627,15.58206z"/>
   </g>
   <g id="svg_498">
    <path id="svg_496" fill="#A0007A" d="m918.23338,55.58234c0,6.42118 -0.27458,8.81842 8.87797,9.41773c4.75932,-0.59931 4.75932,-2.65409 4.75932,-8.7328c0,-7.36295 0,-15.23959 -8.51186,-15.23959c-2.74576,0 -5.0339,0 -7.04746,0c-2.83729,1.79793 1.92203,5.65064 1.92203,14.55467z"/>
    <path id="svg_497" fill="#A0007A" d="m932.69439,73.98972l-11.98983,0c-5.7661,0 -6.95593,4.53763 -6.95593,9.93142l0,1.19862l29.28814,0l0,-1.19862c0,-5.39379 -4.57627,-9.93142 -10.34237,-9.93142z"/>
   </g>
   <path id="svg_499" fill="#AEC9D3" d="m965.00287,86.06153c0,0.85616 -0.7322,1.6267 -1.73898,1.6267l-49.60678,0c-0.91525,0 -1.73898,-0.68493 -1.73898,-1.6267l0,-0.17123c0,-0.85616 0.7322,-1.6267 1.73898,-1.6267l49.60678,0c0.91525,0 1.73898,0.68493 1.73898,1.6267l0,0.17123l0,0z"/>
   <path id="svg_500" fill="#8DAAB2" d="m965.00287,87.77384c0,0.85616 -0.7322,1.6267 -1.73898,1.6267l-49.60678,0c-0.91525,0 -1.73898,-0.68493 -1.73898,-1.6267l0,-0.17123c0,-0.85616 0.7322,-1.6267 1.73898,-1.6267l49.60678,0c0.91525,0 1.73898,0.68493 1.73898,1.6267l0,0.17123l0,0z"/>
   <circle id="svg_501" fill="#095589" r="1.12943" cy="89.40054" cx="917.13507"/>
   <path id="svg_502" fill="#00233F" d="m917.13507,86.14715c1.92203,0 3.47797,1.45547 3.47797,3.2534s-1.55593,3.2534 -3.47797,3.2534"/>
   <circle id="svg_503" fill="#38ADD6" r="0.47556" cy="89.40054" cx="917.13507"/>
   <path id="svg_504" fill="#0C86BC" d="m918.14185,88.37315c0.54915,0.51369 0.54915,1.36985 0,1.96916c-0.54915,0.51369 -1.46441,0.51369 -2.10508,0"/>
   <circle id="svg_505" fill="#095589" r="1.12946" cy="89.40054" cx="927.38592"/>
   <path id="svg_506" fill="#00233F" d="m927.38592,86.14715c1.92203,0 3.47797,1.45547 3.47797,3.2534s-1.55593,3.2534 -3.47797,3.2534"/>
   <circle id="svg_507" fill="#38ADD6" r="0.47555" cy="89.40054" cx="927.38592"/>
   <path id="svg_508" fill="#0C86BC" d="m928.48422,88.37315c0.54915,0.51369 0.54915,1.36985 0,1.96916c-0.54915,0.51369 -1.46441,0.51369 -2.10508,0"/>
   <circle id="svg_509" fill="#095589" r="1.12946" cy="89.40054" cx="937.72829"/>
   <path id="svg_510" fill="#00233F" d="m937.72829,86.14715c1.92203,0 3.47797,1.45547 3.47797,3.2534s-1.55593,3.2534 -3.47797,3.2534"/>
   <circle id="svg_511" fill="#38ADD6" r="0.47555" cy="89.40054" cx="937.72829"/>
   <g id="svg_515">
    <path id="svg_512" fill="#0C86BC" d="m938.73507,88.37315c0.54915,0.51369 0.54915,1.36985 0,1.96916c-0.54915,0.51369 -1.46441,0.51369 -2.10508,0"/>
    <path id="svg_513" fill="#0C86BC" d="m922.71812,89.74301c0,0.25685 -0.27458,0.51369 -0.54915,0.51369l0,0c-0.27458,0 -0.54915,-0.25685 -0.54915,-0.51369l0,0c0,-0.25685 0.27458,-0.51369 0.54915,-0.51369l0,0c0.27458,0 0.54915,0.17123 0.54915,0.51369l0,0z"/>
    <path id="svg_514" fill="#0C86BC" d="m933.0605,89.74301c0,0.25685 -0.27458,0.51369 -0.54915,0.51369l0,0c-0.27458,0 -0.54915,-0.25685 -0.54915,-0.51369l0,0c0,-0.25685 0.27458,-0.51369 0.54915,-0.51369l0,0c0.27458,0 0.54915,0.17123 0.54915,0.51369l0,0z"/>
   </g>
   <circle id="svg_516" fill="#095589" r="2.08057" cy="52.84264" cx="922.07744"/>
   <path id="svg_517" fill="#00233F" d="m928.48422,52.84264c0,3.33901 -2.83729,5.9931 -6.40678,5.9931s-6.40678,-2.65409 -6.40678,-5.9931"/>
   <ellipse id="svg_518" fill="#EA2D83" ry="3.59586" rx="2.56271" cy="52.84264" cx="919.14863"/>
   <path id="svg_519" fill="#A0007A" d="m919.14863,56.4385c-1.37288,0 -2.56271,-1.6267 -2.56271,-3.59586s1.09831,-3.59586 2.56271,-3.59586"/>
   <path id="svg_520" fill="#AEC9D3" d="m916.12829,68.4247c-0.27458,0.85616 -1.18983,1.45547 -2.19661,1.19862l0,0c-0.91525,-0.25685 -1.55593,-1.113 -1.28136,-2.05478l4.21017,-14.98275c0.27458,-0.85616 1.18983,-1.45547 2.19661,-1.19862l0,0c0.91525,0.25685 1.55593,1.113 1.28136,2.05478l-4.21017,14.98275z"/>
   <path id="svg_521" fill="#8DAAB2" d="m916.12829,68.4247c-0.27458,0.85616 -1.18983,1.45547 -2.19661,1.19862l0,0c-0.91525,-0.25685 -1.55593,-1.113 -1.28136,-2.05478l4.21017,-14.98275c0.27458,-0.85616 1.18983,-1.45547 2.19661,-1.19862l0,0"/>
   <path id="svg_522" fill="#EA2D83" d="m924.36558,69.28085c0,1.45547 -1.28136,2.99655 -2.83729,2.99655l-8.60339,0c-1.55593,0 -1.92203,-1.54108 -1.92203,-2.99655l0,0c0,-1.45547 1.28136,-2.99655 2.83729,-2.99655l8.60339,0c1.55593,0 1.92203,1.54108 1.92203,2.99655l0,0z"/>
   <path id="svg_523" fill="#A0007A" d="m924.36558,69.36647l0,0c0,1.45547 -1.28136,2.91093 -2.83729,2.91093l-8.60339,0c-1.55593,0 -1.92203,-1.36985 -1.92203,-2.91093l0,0c0,-1.45547 1.09831,-3.08217 2.83729,-3.08217"/>
   <path id="svg_524" fill="#FFFB76" d="m922.90117,69.36647c0,0.34246 -0.09153,0.68493 -0.45763,0.68493l0,0c-0.3661,0 -0.45763,-0.34246 -0.45763,-0.68493l0,-1.02739c0,-0.34246 0.09153,-0.68493 0.45763,-0.68493l0,0c0.3661,0 0.45763,0.34246 0.45763,0.68493l0,1.02739z"/>
   <g id="svg_527">
    <path id="svg_525" fill="#8DAAB2" d="m927.01982,51.55841c0,0.17123 -0.09153,0.25685 -0.27458,0.25685l-1.83051,0c-0.18305,0 -0.27458,-0.08562 -0.27458,-0.25685l0,0c0,-0.17123 0.09153,-0.25685 0.27458,-0.25685l1.83051,0c0.09153,0 0.27458,0.08562 0.27458,0.25685l0,0z"/>
    <path id="svg_526" fill="#8DAAB2" d="m926.19609,49.93171c0,0.17123 -0.09153,0.25685 -0.27458,0.25685l-1.83051,0c-0.18305,0 -0.27458,-0.08562 -0.27458,-0.25685l0,0c0,-0.17123 0.09153,-0.25685 0.27458,-0.25685l1.83051,0c0.18305,0 0.27458,0.08562 0.27458,0.25685l0,0z"/>
   </g>
   <g id="svg_531">
    <path id="svg_528" fill="#AEC9D3" d="m922.90117,77.92804c0,0.17123 -0.18305,0.34246 -0.3661,0.34246l-3.84407,0c-0.18305,0 -0.3661,-0.17123 -0.3661,-0.34246l0,-0.17123c0,-0.17123 0.18305,-0.34246 0.3661,-0.34246l3.84407,0c0.18305,0 0.3661,0.17123 0.3661,0.34246l0,0.17123z"/>
    <path id="svg_529" fill="#AEC9D3" d="m922.90117,79.64035c0,0.17123 -0.18305,0.34246 -0.3661,0.34246l-3.84407,0c-0.18305,0 -0.3661,-0.17123 -0.3661,-0.34246l0,-0.17123c0,-0.17123 0.18305,-0.34246 0.3661,-0.34246l3.84407,0c0.18305,0 0.3661,0.17123 0.3661,0.34246l0,0.17123z"/>
    <path id="svg_530" fill="#AEC9D3" d="m922.90117,81.35267c0,0.17123 -0.18305,0.34246 -0.3661,0.34246l-3.84407,0c-0.18305,0 -0.3661,-0.17123 -0.3661,-0.34246l0,-0.17123c0,-0.17123 0.18305,-0.34246 0.3661,-0.34246l3.84407,0c0.18305,0 0.3661,0.17123 0.3661,0.34246l0,0.17123z"/>
   </g>
   <g id="svg_535">
    <path id="svg_532" fill="#8DAAB2" d="m929.30795,67.82539c-0.18305,0 -0.3661,-0.17123 -0.3661,-0.34246l0,0c0,-0.17123 0.18305,-0.34246 0.3661,-0.34246l9.7017,0c0.18305,0 0.3661,0.17123 0.3661,0.34246l0,0c0,0.17123 -0.18305,0.34246 -0.3661,0.34246"/>
    <path id="svg_533" fill="#8DAAB2" d="m939.37575,70.22263c0,0.17123 -0.18305,0.34246 -0.3661,0.34246l-9.33559,0c-0.18305,0 -0.3661,-0.17123 -0.3661,-0.34246l0,-0.17123c0,-0.17123 0.18305,-0.34246 0.3661,-0.34246l9.33559,0c0.18305,0 0.3661,0.17123 0.3661,0.34246l0,0.17123z"/>
    <path id="svg_534" fill="#8DAAB2" d="m939.37575,72.7911c0,0.17123 -0.18305,0.34246 -0.3661,0.34246l-9.33559,0c-0.18305,0 -0.3661,-0.17123 -0.3661,-0.34246l0,-0.17123c0,-0.17123 0.18305,-0.34246 0.3661,-0.34246l9.33559,0c0.18305,0 0.3661,0.17123 0.3661,0.34246l0,0.17123z"/>
   </g>
   <ellipse id="svg_536" fill="#FFFB76" ry="1.6267" rx="7.04746" cy="47.44885" cx="940.84016"/>
   <g id="svg_541">
    <path id="svg_537" fill="#FFD67B" d="m947.88761,47.44885c0,0.94177 -3.11186,1.6267 -7.04746,1.6267s-7.04746,-0.77054 -7.04746,-1.6267"/>
    <ellipse id="svg_538" fill="#FFD67B" ry="0.68493" rx="0.45763" cy="52.58579" cx="942.48761"/>
    <ellipse id="svg_539" fill="#FFD67B" ry="0.68493" rx="0.45763" cy="55.41111" cx="942.48761"/>
    <ellipse id="svg_540" fill="#FFD67B" ry="0.68493" rx="0.45763" cy="58.23643" cx="942.48761"/>
   </g>
  </g>
 </g>
 <defs>
  <filter id="svg_610_blur">
   <feGaussianBlur stdDeviation="1.7" in="SourceGraphic"/>
  </filter>
  <filter id="svg_405_blur">
   <feGaussianBlur stdDeviation="1.3" in="SourceGraphic"/>
  </filter>
  <filter id="svg_542_blur">
   <feGaussianBlur stdDeviation="1" in="SourceGraphic"/>
  </filter>
  <filter id="svg_473_blur">
   <feGaussianBlur stdDeviation="1.9" in="SourceGraphic"/>
  </filter>
 </defs>
</svg>